<svg width="720" height="500" viewBox="0 0 720 500" xmlns="http://www.w3.org/2000/svg" xmlns:xlink="http://www.w3.org/1999/xlink"><title>bg-football-light-green</title><defs><path id="a" d="M0 0h720v500H0z"/></defs><g fill="none" fill-rule="evenodd"><mask id="b" fill="#fff"><use xlink:href="#a"/></mask><use fill="#D8F6BB" xlink:href="#a"/><g style="mix-blend-mode:overlay" mask="url(#b)"><path d="M894.697 201.287c32.653 265.942-169.571 509.617-451.674 544.255-282.103 34.637-537.27-152.877-569.924-418.819-32.654-265.942 169.57-509.617 451.673-544.255 282.103-34.637 537.271 152.877 569.925 418.819"/><path d="M360.905 76.74c-15.665 1.924-29.85-8.5-31.663-23.267L306.25-133.79c-1.813-14.767 9.428-28.313 25.093-30.237 15.664-1.923 29.85 8.501 31.662 23.268l22.994 187.264c1.813 14.767-9.429 28.313-25.093 30.237M188.877 220.076a29.905 29.905 0 0 1-8.724-.205L-56.38 179.91c-15.504-2.631-25.636-16.648-22.653-31.298 2.98-14.677 18.054-24.457 33.469-21.842L191 166.753c15.5 2.605 25.633 16.622 22.625 31.302-2.432 11.867-12.716 20.543-24.748 22.02m385.689-55.272c-12.316 1.512-24.575-4.722-29.614-15.97-6.111-13.642.72-29.552 15.284-35.522l185.118-75.9c14.562-5.97 31.289.286 37.368 13.905 6.114 13.669-.718 29.579-15.284 35.522l-185.115 75.927a29.872 29.872 0 0 1-7.757 2.038m105.917 393.185c-8.684 1.066-17.657-1.634-24.111-7.983L477.37 372.853c-10.82-10.701-10.269-27.795 1.222-38.14 11.484-10.399 29.582-10.095 40.374.61l179 177.151c10.82 10.701 10.27 27.795-1.221 38.14-4.64 4.209-10.389 6.653-16.263 7.374M161.068 619.51c-5.59.687-11.428-.172-16.763-2.802-13.89-6.849-19.115-23.125-11.664-36.341l121.211-215.154c7.448-13.243 24.756-18.437 38.678-11.565 13.89 6.849 19.114 23.125 11.663 36.341l-121.21 215.154c-4.583 8.193-12.947 13.266-21.915 14.367M2.174 556.97c-12.486 1.533-24.913-4.898-29.808-16.38l-88.547-208.082c-5.862-13.727 1.27-29.538 15.92-35.274 14.721-5.61 31.294.8 37.131 14.558l88.572 208.051c5.837 13.757-1.298 29.542-15.948 35.278a29.86 29.86 0 0 1-7.32 1.849m547.79 121.13l-255.4 31.36c-15.664 1.923-29.845-8.475-31.662-23.268-1.816-14.794 9.429-28.313 25.093-30.237l255.4-31.359c15.693-1.927 29.846 8.474 31.662 23.268 1.817 14.794-9.4 28.31-25.093 30.236m264.771-219.203c-2.242.276-4.57.317-6.906.06-15.644-1.663-26.733-15.02-24.747-29.819l31.971-238.14c2.014-14.803 16.437-25.426 31.933-23.799 15.644 1.664 26.76 15.017 24.747 29.82l-31.972 238.14c-1.709 12.593-12.285 22.174-25.026 23.738M699.396-54.773a29.89 29.89 0 0 1-14.629-1.842l-228.991-90.689c-14.446-5.748-21.107-21.522-14.82-35.301 6.262-13.75 23.03-20.289 37.565-14.524l228.991 90.688c14.446 5.748 21.136 21.519 14.82 35.301-4.17 9.202-13.117 15.162-22.936 16.367M-4.67 31.675c-8.853 1.088-18.013-1.725-24.44-8.322-10.613-10.89-9.771-27.965 1.916-38.117L133.83-155.051c11.684-10.179 29.73-9.597 40.339 1.266 10.616 10.916 9.743 27.968-1.913 38.143L11.232 24.645c-4.609 3.987-10.169 6.327-15.901 7.03" opacity=".18" fill="#000"/><path d="M581.81 117.943L360.565 7.077c-10.68-5.341-23.9-3.691-32.955 4.21l-186.41 163.2c-8.923 7.802-11.744 20.016-7.059 30.493l99.134 220.875c4.922 10.99 17.011 17.49 29.611 15.943l254.236-31.216c12.202-1.499 22.083-10.18 24.665-21.522l54.31-242.023c2.624-11.7-3.207-23.53-14.289-29.094M23.847-34.82C17.69-40.393 9.187-43.015.674-41.97L-84.46-31.516a29.851 29.851 0 0 0-16.395 7.472l-103.657 94.193c-6.505 5.904-9.733 14.338-8.698 22.765l24.911 202.888c.96 7.811 5.505 14.802 12.43 19.112l71.444 44.397c5.705 3.536 12.537 4.978 19.234 4.156a31.314 31.314 0 0 0 4.917-1.01c8.172-2.416 14.839-8.177 18.156-15.645L13.95 174.54c1.12-2.609 1.848-5.36 2.109-8.161l16.367-179.66c.737-8.074-2.425-15.995-8.579-21.54m459.911-233.417c-3.427-9.844-14.484-15.438-24.979-13.172l-288.64 63.737c-8.217 1.823-14.185 6.467-15.937 14.258-1.698 4.934-19.092 45.793-30.875 73.227-2.62 6.106-1.972 13.032 1.784 18.518 3.727 5.49 10.104 8.861 17.046 9.095l184.327 5.636a21.372 21.372 0 0 0 3.467-.154 21.473 21.473 0 0 0 3.43-.692l169.364-47.951c5.568-1.58 10.304-5.23 13.016-10.125 2.74-4.898 3.252-10.582 1.46-15.793l-33.463-96.584zm454.64 427.258L788.591-103.184c-3.898-6.88-11.717-10.971-20.006-10.442l-95.298 6.026c-6.54.45-12.662 3.618-16.492 8.786-3.745 5.158-4.866 11.514-2.897 17.464l53.476 161.743c.765 2.241 1.848 3.792 3.375 5.668 50.564 61.788 106.887 130.826 114.934 142.873.957 2.164 2.05 1.92 3.731 3.642 4.645 4.752 11.026 2.53 17.865 1.69l.17-.021c7.067-.868 11.151 2.84 84.952-54.395 8.021-6.226 10.872-12.333 5.997-20.832M329.013 673.512l-144.124-118.08a21.23 21.23 0 0 0-6.523-3.626C1.282 490.21-1.932 489.6-4.054 489.208a23.826 23.826 0 0 0-6.967-.203c-19.212 2.359-20.982 5.074-33.687 111.562a18.41 18.41 0 0 0-.062 4.19l11.194 110.641c.755 7.321 5.647 13.618 12.791 16.434l222.054 88.145a22.184 22.184 0 0 0 11.005 1.419c5.108-.627 9.95-2.96 13.511-6.792l105.013-112.472c3.823-4.054 5.763-9.37 5.422-14.732-.342-5.362-2.947-10.392-7.207-13.888m543.067-185.83l-44.849-81.634c-2.702-4.882-7.44-8.51-13.066-9.992-5.654-1.478-11.749-.675-16.783 2.197l-163.861 92.543c-2.857 1.6-5.295 3.8-7.102 6.439l-103.91 150.789c-3.15 4.596-4.26 10.109-3.067 15.366 1.196 5.284 4.581 9.865 9.394 12.696 148.834 88.175 151.7 87.823 161.15 86.662 7.917-.972 10.897-1.338 171.299-126.042 4.812-3.741 7.713-9.203 7.947-15.042l5.203-123.952c.148-3.494-.68-6.95-2.354-10.03" fill="#292F33"/></g></g></svg>