<svg width="720" height="500" viewBox="0 0 720 500" xmlns="http://www.w3.org/2000/svg" xmlns:xlink="http://www.w3.org/1999/xlink"><title>bg-football-dark-blue</title><defs><path id="a" d="M0 0h720v500H0z"/></defs><g fill="none" fill-rule="evenodd"><mask id="b" fill="#fff"><use xlink:href="#a"/></mask><use fill="#1C2F5C" xlink:href="#a"/><g opacity=".281" style="mix-blend-mode:overlay" mask="url(#b)"><path d="M896.578 186.193c32.956 268.4-171.22 514.337-456.034 549.307-284.813 34.97-542.422-154.266-575.377-422.665-32.955-268.4 171.221-514.336 456.034-549.307 284.813-34.97 542.422 154.266 575.377 422.665"/><path d="M357.667 60.52c-15.815 1.941-30.135-8.578-31.965-23.482l-23.206-188.994c-1.83-14.904 9.52-28.576 25.335-30.518 15.815-1.941 30.136 8.578 31.966 23.482l23.205 188.994c1.83 14.904-9.52 28.576-25.335 30.518M183.982 205.187a30.202 30.202 0 0 1-8.809-.206l-238.8-40.319c-15.653-2.655-25.882-16.8-22.87-31.586 3.01-14.813 18.229-24.684 33.792-22.046l238.833 40.342c15.649 2.628 25.878 16.774 22.84 31.59-2.455 11.977-12.839 20.734-24.986 22.225m389.394-55.8c-12.434 1.527-24.81-4.765-29.898-16.117-6.17-13.767.73-29.825 15.432-35.85l186.9-76.61c14.703-6.026 31.59.287 37.727 14.03 6.172 13.796-.726 29.853-15.433 35.852L581.208 147.33a30.17 30.17 0 0 1-7.832 2.058m106.916 396.814c-8.767 1.077-17.826-1.648-24.342-8.056L475.238 359.365c-10.923-10.8-10.366-28.052 1.236-38.493 11.595-10.496 29.867-10.19 40.761.613l180.712 178.782c10.923 10.8 10.366 28.051-1.236 38.493-4.684 4.247-10.488 6.714-16.419 7.442m-524.404 62.114c-5.644.693-11.538-.173-16.924-2.828-14.023-6.91-19.297-23.337-11.774-36.676l122.384-217.148c7.52-13.366 24.995-18.608 39.05-11.674 14.022 6.911 19.296 23.338 11.773 36.677L178.013 593.815c-4.626 8.269-13.071 13.39-22.125 14.501M-4.528 545.205c-12.606 1.548-25.152-4.942-30.094-16.531l-89.388-210.001c-5.918-13.854 1.283-29.812 16.073-35.601 14.864-5.662 31.596.807 37.488 14.69l89.413 209.971c5.893 13.884-1.312 29.815-16.102 35.605a30.185 30.185 0 0 1-7.39 1.867M548.515 667.43l-257.853 31.66c-15.814 1.943-30.132-8.55-31.965-23.48-1.833-14.931 9.52-28.576 25.335-30.518l257.853-31.66c15.844-1.945 30.132 8.55 31.966 23.481 1.833 14.931-9.492 28.572-25.336 30.517m267.322-221.24a30.26 30.26 0 0 1-6.972.06c-15.794-1.678-26.988-15.157-24.983-30.093l32.29-240.344c2.033-14.94 16.595-25.662 32.24-24.02 15.793 1.678 27.016 15.155 24.983 30.094l-32.29 240.344c-1.726 12.709-12.404 22.379-25.268 23.958M699.414-72.225c-4.87.598-9.94.042-14.77-1.859L453.46-165.6c-14.584-5.801-21.309-21.72-14.96-35.628 6.322-13.876 23.252-20.477 37.926-14.66l231.186 91.516c14.584 5.801 21.337 21.717 14.96 35.628-4.21 9.287-13.244 15.302-23.157 16.519m-710.83 87.279C-20.353 16.15-29.6 13.313-36.09 6.655c-10.713-10.99-9.863-28.223 1.937-38.47l162.576-141.59c11.796-10.273 30.015-9.688 40.726 1.275 10.717 11.017 9.835 28.227-1.933 38.497L4.64 7.957c-4.653 4.025-10.267 6.386-16.055 7.097" opacity=".18" fill="#000"/><path d="M580.69 102.093L357.33-9.788c-10.783-5.39-24.13-3.724-33.272 4.25L135.849 159.179c-9.008 7.875-11.857 20.202-7.127 30.775l100.076 222.913c4.968 11.092 17.174 17.651 29.894 16.09l256.679-31.517c12.32-1.512 22.295-10.274 24.902-21.721l54.842-244.264c2.65-11.809-3.236-23.748-14.424-29.362M17.378-52.059c-6.216-5.622-14.8-8.268-23.395-7.213l-85.95 10.554c-6.218.763-12 3.419-16.553 7.541l-104.656 95.069c-6.568 5.959-9.827 14.471-8.783 22.976l25.142 204.762c.968 7.884 5.556 14.94 12.547 19.288l72.128 44.805c5.76 3.568 12.657 5.024 19.419 4.194a31.626 31.626 0 0 0 4.964-1.021c8.25-2.438 14.982-8.253 18.332-15.79L7.377 159.238c1.13-2.632 1.866-5.408 2.13-8.236L26.038-30.32c.744-8.149-2.448-16.143-8.66-21.739m464.337-235.595c-3.46-9.935-14.622-15.58-25.218-13.293l-291.415 64.339c-8.295 1.84-14.32 6.527-16.09 14.39-1.714 4.98-19.277 46.218-31.174 73.906-2.646 6.163-1.992 13.153 1.8 18.69 3.763 5.54 10.2 8.942 17.21 9.178l186.096 5.68c1.17.048 2.354-.015 3.5-.156 1.175-.144 2.34-.37 3.462-.699L500.88-164.02c5.62-1.595 10.403-5.28 13.14-10.22 2.767-4.943 3.284-10.68 1.475-15.94l-33.78-97.474zm458.987 431.187l-151.234-264.62c-3.936-6.943-11.83-11.072-20.198-10.537l-96.213 6.085c-6.604.455-12.784 3.653-16.65 8.869-3.782 5.205-4.914 11.62-2.926 17.625L707.463 64.19c.772 2.262 1.865 3.827 3.407 5.72 51.047 62.358 107.907 132.032 116.03 144.19.967 2.183 2.071 1.938 3.768 3.675 4.69 4.796 11.132 2.552 18.036 1.705l.172-.021c7.134-.876 11.258 2.865 85.77-54.902 8.098-6.284 10.977-12.448 6.056-21.025M325.443 662.81L179.94 543.644a21.433 21.433 0 0 0-6.586-3.659C-5.426 477.827-8.672 477.211-10.814 476.817a24.063 24.063 0 0 0-7.034-.205c-19.396 2.381-21.183 5.122-34.015 112.595a18.573 18.573 0 0 0-.063 4.229l11.297 111.663c.762 7.389 5.7 13.743 12.913 16.585l224.182 88.95a22.404 22.404 0 0 0 11.11 1.432c5.158-.633 10.045-2.987 13.642-6.855l106.026-113.517c3.86-4.091 5.819-9.457 5.474-14.868-.344-5.412-2.974-10.488-7.275-14.016m548.29-187.572l-45.277-82.388c-2.728-4.927-7.51-8.587-13.19-10.083-5.71-1.491-11.863-.68-16.945 2.218l-165.439 93.406c-2.884 1.615-5.345 3.835-7.17 6.499L520.799 637.077c-3.183 4.639-4.302 10.203-3.098 15.509 1.207 5.333 4.625 9.956 9.483 12.813 150.259 88.983 153.153 88.628 162.693 87.456 7.994-.981 11.002-1.35 172.95-127.215 4.858-3.776 7.787-9.288 8.023-15.182l5.26-125.098c.148-3.526-.687-7.014-2.377-10.122" fill="#292F33"/></g></g></svg>