<?xml version="1.0" encoding="UTF-8"?>
<svg width="96px" height="96px" viewBox="0 0 96 96" version="1.1" xmlns="http://www.w3.org/2000/svg" xmlns:xlink="http://www.w3.org/1999/xlink">
    <!-- Generator: Sketch 43.2 (39069) - http://www.bohemiancoding.com/sketch -->
    <title>clubs</title>
    <desc>Created with Sketch.</desc>
    <defs></defs>
    <g id="Page-1" stroke="none" stroke-width="1" fill="none" fill-rule="evenodd">
        <g id="clubs">
            <path d="M70.5327847,20.3915805 C66.8921053,21.1778205 64.1399883,18.9389835 62.3498951,15.105846 C61.862564,14.0623211 61.4750132,12.9609781 61.172549,11.8616905 C60.9904121,11.1997254 60.8749106,10.6755023 60.8170792,10.3528113 C60.5705071,8.97697545 61.7752994,7.77901284 63.1497113,8.03340239 C63.4724971,8.09314673 63.9978009,8.21154851 64.6614338,8.39679459 C65.7636582,8.7044689 66.8679046,9.0957908 67.913927,9.58453297 C71.6740939,11.3414287 73.910952,13.9916044 73.2714589,17.4730719 C73.833031,17.9678062 74.3780649,18.483077 74.9058538,19.0174433 C75.1702657,18.1070591 75.5351654,17.185796 75.9782238,16.2625407 C76.5352051,15.1018901 77.0929401,14.1746128 77.4850031,13.6053553 C78.2768281,12.4556618 79.9730844,12.450331 80.7721199,13.595025 C81.1695931,14.164443 81.7349996,15.0919411 82.2997415,16.2530723 C83.0076424,17.7085439 83.5189517,19.159344 83.7451617,20.5713516 C84.2116075,23.4829149 83.3914261,25.9836031 81.0452804,27.501017 C81.5304696,28.4345497 81.9770063,29.3915296 82.383062,30.3682288 C82.8579252,29.7478003 83.4121723,29.136492 84.0335203,28.5347256 C85.2396642,27.3665931 86.4342824,26.4812773 87.2692378,25.9574367 C88.4468096,25.2186429 90.0003096,25.8768702 90.2886482,27.2367792 C90.3425561,27.4910284 90.4169944,27.9130291 90.4897674,28.4642613 C90.6955978,30.0233609 90.756319,31.6400099 90.5792554,33.1912259 C90.1514874,36.9388071 88.3665863,39.628339 84.9712472,40.1749681 C85.0796149,41.0637182 85.1557054,41.9579423 85.1984542,42.8554708 C86.0295952,42.4172039 86.9806928,42.0706104 88.0268527,41.8126917 C89.0974115,41.5487576 90.2219793,41.3883266 91.3582899,41.3086188 C92.125743,41.254785 92.8037344,41.2434932 93.3455233,41.2567299 C93.4224993,41.2586105 93.4735456,41.2604159 93.5160375,41.2622881 C94.9105144,41.3258288 95.8125944,42.7622229 95.2642041,44.0459174 C94.8378024,45.0440559 94.0810012,46.472996 93.0173093,47.9212226 C90.5873917,51.2295786 87.6370351,52.995973 84.4536817,51.9868358 C84.2960855,52.7185549 84.1154719,53.4422918 83.9124714,54.1571901 C84.3772017,54.1021102 84.8606277,54.0757618 85.3602011,54.0772561 C86.782673,54.081511 88.2642168,54.3057601 89.7381468,54.6748433 C90.623614,54.896571 91.3206417,55.1208097 91.7452849,55.2800977 C93.0614459,55.773803 93.4710394,57.4354532 92.5351128,58.4842936 C91.9506496,59.1392688 90.9867657,60.0750821 89.7587036,61.0159097 C87.9619559,62.3924117 86.1463116,63.3330795 84.3139601,63.6176374 C82.7877587,63.8546513 81.3453914,63.6059637 80.0855054,62.8479405 C79.610923,63.6166538 79.1063697,64.3662677 78.5730316,65.0951714 C79.8143882,65.3393801 81.084155,65.7854953 82.3579352,66.3763686 C83.5143654,66.9128063 84.4382938,67.4502348 85.0053841,67.8280761 C86.1739385,68.6066613 86.1973724,70.3154992 85.0506074,71.1258351 C84.4745345,71.5329041 83.5357988,72.1123572 82.3607569,72.6912619 C80.893833,73.4139672 79.431816,73.936954 78.0087679,74.1705568 C75.4142689,74.596461 73.1399731,74.0019784 71.5885689,72.2100083 C68.0807922,74.8812129 64.0071812,76.9355912 59.5,78.1935484 L60.0468284,78.1173412 C59.4578737,78.2847486 57.270083,78.883435 57.3073239,78.8731288 C56.1854862,79.1835922 55.3233942,79.4354909 54.4907477,79.7018259 C53.5062085,80.016746 52.599377,80.3445649 51.7675561,80.6906819 C53.1111403,81.9792919 54.1192273,83.4884244 54.8000344,85.2945737 C55.1896306,86.3281541 54.6675782,87.4818668 53.6339978,87.871463 C52.6004173,88.2610592 51.4467047,87.7390068 51.0571084,86.7054263 C50.4692412,85.145842 49.4653663,83.86134 48,82.7608618 C46.5346337,83.86134 45.5307588,85.145842 44.9428916,86.7054263 C44.5532953,87.7390068 43.3995827,88.2610592 42.3660022,87.871463 C41.3324218,87.4818668 40.8103694,86.3281541 41.1999656,85.2945737 C41.8807727,83.4884244 42.8888597,81.9792919 44.2324439,80.6906819 C43.400623,80.3445649 42.4937915,80.016746 41.5092523,79.7018259 C40.6766058,79.4354909 39.8145138,79.1835922 38.6926761,78.8731288 C38.729917,78.883435 36.5421263,78.2847486 36.5,78.1935484 L35.9531716,78.1173412 C31.6606149,76.8972035 27.7451405,74.894157 24.3472892,72.2829544 C22.7976771,74.0180691 20.5502012,74.5906286 17.9912321,74.1705568 C16.568184,73.936954 15.106167,73.4139672 13.6392431,72.6912619 C12.4642012,72.1123572 11.5254655,71.5329041 10.9493926,71.1258351 C9.8026276,70.3154992 9.82606145,68.6066613 10.9946159,67.8280761 C11.5617062,67.4502348 12.4856346,66.9128063 13.6420648,66.3763686 C14.899179,65.7932263 16.1523842,65.3510788 17.3782285,65.1048606 C16.8529063,64.3783532 16.3553059,63.6310407 15.8867314,62.8645446 C14.6334369,63.6095871 13.2010425,63.8529122 11.6860399,63.6176374 C9.85368836,63.3330795 8.03804411,62.3924117 6.24129642,61.0159097 C5.01323434,60.0750821 4.04935039,59.1392688 3.46488722,58.4842936 C2.52896064,57.4354532 2.93855407,55.773803 4.25471511,55.2800977 C4.67935827,55.1208097 5.37638601,54.896571 6.26185318,54.6748433 C7.73578319,54.3057601 9.21732695,54.081511 10.6397989,54.0772561 C11.1375526,54.0757673 11.6192764,54.1019187 12.0824496,54.1565894 C11.8807216,53.4421411 11.7010836,52.7188222 11.5442305,51.9874973 C8.36167493,52.9952006 5.4120771,51.2288554 2.98269072,47.9212226 C1.91899881,46.472996 1.16219756,45.0440559 0.735795855,44.0459174 C0.187405584,42.7622229 1.08948559,41.3258288 2.48396248,41.2622881 C2.52645435,41.2604159 2.57750069,41.2586105 2.65447671,41.2567299 C3.19626558,41.2434932 3.87425699,41.254785 4.6417101,41.3086188 C5.77802068,41.3883266 6.9025885,41.5487576 7.97314734,41.8126917 C9.01930718,42.0706104 9.97040483,42.4172039 10.8015458,42.8554708 C10.8442946,41.9579423 10.9203851,41.0637182 11.0287528,40.1749681 C7.63341365,39.628339 5.84851255,36.9388071 5.42074463,33.1912259 C5.24368096,31.6400099 5.30440218,30.0233609 5.51023261,28.4642613 C5.58300562,27.9130291 5.65744393,27.4910284 5.71135183,27.2367792 C5.99969044,25.8768702 7.55319043,25.2186429 8.73076218,25.9574367 C9.56571755,26.4812773 10.7603358,27.3665931 11.9664797,28.5347256 C12.5878277,29.136492 13.1420748,29.7478003 13.616938,30.3682288 C14.0229937,29.3915296 14.4695304,28.4345497 14.9547196,27.501017 C12.6085739,25.9836031 11.7883925,23.4829149 12.2548383,20.5713516 C12.4810483,19.159344 12.9923576,17.7085439 13.7002585,16.2530723 C14.2650004,15.0919411 14.8304069,14.164443 15.2278801,13.595025 C16.0269156,12.450331 17.7231719,12.4556618 18.5149969,13.6053553 C18.9070599,14.1746128 19.4647949,15.1018901 20.0217762,16.2625407 C20.4648346,17.185796 20.8297343,18.1070591 21.0941462,19.0174433 C21.6219351,18.483077 22.166969,17.9678062 22.7285411,17.4730719 C22.089048,13.9916044 24.3259061,11.3414287 28.086073,9.58453297 C29.1320954,9.0957908 30.2363418,8.7044689 31.3385662,8.39679459 C32.0021991,8.21154851 32.5275029,8.09314673 32.8502887,8.03340239 C34.2247006,7.77901284 35.4294929,8.97697545 35.1829208,10.3528113 C35.1250894,10.6755023 35.0095879,11.1997254 34.827451,11.8616905 C34.5249868,12.9609781 34.137436,14.0623211 33.6501049,15.105846 C31.8600117,18.9389835 29.1078947,21.1778205 25.4672153,20.3915805 C18.8474083,26.1705638 14.7607143,35.2620726 14.7607143,44.5677419 C14.7607143,52.7810163 17.9372053,60.3318281 23.1233117,65.8974279 C23.7774622,66.3222429 24.3532204,66.8852013 24.8334014,67.5938081 C28.1432168,70.6277599 32.1124838,72.9188141 36.5,74.1935484 L37.0468284,74.2697556 C37.6134477,74.4308143 39.7795371,75.0235622 39.7595561,75.0180325 C40.9279231,75.3413727 41.8364499,75.6068394 42.7278905,75.8919806 C44.7158972,76.5278754 46.4717788,77.2292478 48,78.037658 C49.5282212,77.2292478 51.2841028,76.5278754 53.2721095,75.8919806 C54.1635501,75.6068394 55.0720769,75.3413727 56.2404439,75.0180325 C56.2204629,75.0235622 58.3865523,74.4308143 59.5,74.1935484 L58.9531716,74.2697556 C63.7145655,72.9163533 67.951727,70.4736041 71.4193218,67.2454874 C71.7677953,66.7968291 72.1591692,66.4150142 72.5880297,66.0976786 C77.9920664,60.498949 81.2392857,52.871952 81.2392857,44.5677419 C81.2392857,35.2620726 77.1525917,26.1705638 70.5327847,20.3915805 L70.5327847,20.3915805 Z M18.5509111,68.9587271 C17.8805947,69.0596094 17.1528249,69.2642625 16.3966297,69.5517875 C17.185631,69.8772405 17.9441663,70.1092941 18.6391863,70.2233863 C19.8876998,70.4283381 20.7433441,70.2639522 21.3455577,69.6236189 C20.7437351,68.946141 19.8593265,68.7618112 18.5509111,68.9587271 Z M10.6517636,58.0772383 C10.1693782,58.0786812 9.66245509,58.116478 9.14132848,58.1853092 C10.2857145,58.9959296 11.3777638,59.5218165 12.2998686,59.6650162 C12.928533,59.7626457 13.4477583,59.6853189 13.9212588,59.3777893 C13.3970566,58.4597607 12.3470563,58.0721673 10.6517636,58.0772383 Z M7.01566229,45.6964041 C6.74535494,45.6297629 6.46687175,45.5711315 6.1822108,45.5201321 C6.19031073,45.531226 6.19842337,45.5423044 6.20654866,45.5533671 C7.68840993,47.5709353 9.0340626,48.453298 10.3649956,48.1206305 C10.1376846,46.9477834 9.04228134,46.1960439 7.01566229,45.6964041 Z M11.3993659,35.8273104 C11.7364719,34.7225543 10.9866186,33.1964757 9.31932622,31.5410586 C9.32631393,31.9494758 9.35073669,32.3503503 9.39493834,32.7375913 C9.61154256,34.6352135 10.1845542,35.7290232 11.2868306,36.1160731 C11.3329904,36.0188406 11.3702754,35.9226453 11.3993659,35.8273104 Z M17.4954088,21.1999865 C17.3870893,20.5147172 17.1659731,19.7678083 16.8554091,18.9911993 C16.539308,19.7696827 16.3143677,20.5181466 16.2044747,21.2041013 C16.0006941,22.4761037 16.1785026,23.3360625 16.8585771,23.9329988 C17.5216877,23.3360517 17.6966389,22.4730431 17.4954088,21.1999865 Z M30.025842,13.4132982 C30.086338,13.2837578 30.1451395,13.1523385 30.2022455,13.0193289 C30.059369,13.0804949 29.9182767,13.1435434 29.7793172,13.2084706 C27.6866874,14.1862284 26.6486864,15.2351138 26.6691023,16.5021949 C27.9852104,16.5401238 29.0488826,15.5052672 30.025842,13.4132982 Z M77.3608137,70.2233863 C78.0558337,70.1092941 78.814369,69.8772405 79.6033703,69.5517875 C78.8471751,69.2642625 78.1194053,69.0596094 77.4490889,68.9587271 C76.1406735,68.7618112 75.2562649,68.946141 74.6544423,69.6236189 C75.2566559,70.2639522 76.1123002,70.4283381 77.3608137,70.2233863 Z M83.7001314,59.6650162 C84.6222362,59.5218165 85.7142855,58.9959296 86.8586715,58.1853092 C86.3375449,58.116478 85.8306218,58.0786812 85.3482364,58.0772383 C83.6529437,58.0721673 82.6029434,58.4597607 82.0787412,59.3777893 C82.5522417,59.6853189 83.071467,59.7626457 83.7001314,59.6650162 Z M89.7934513,45.5533671 C89.8015766,45.5423044 89.8096893,45.531226 89.8177892,45.5201321 C89.5331283,45.5711315 89.2546451,45.6297629 88.9843377,45.6964041 C86.9577187,46.1960439 85.8623154,46.9477834 85.6350044,48.1206305 C86.9659374,48.453298 88.3115901,47.5709353 89.7934513,45.5533671 Z M86.6050617,32.7375913 C86.6492633,32.3503503 86.6736861,31.9494758 86.6806738,31.5410586 C85.0133814,33.1964757 84.2635281,34.7225543 84.6006341,35.8273104 C84.6297246,35.9226453 84.6670096,36.0188406 84.7131694,36.1160731 C85.8154458,35.7290232 86.3884574,34.6352135 86.6050617,32.7375913 Z M79.7955253,21.2041013 C79.6856323,20.5181466 79.460692,19.7696827 79.1445909,18.9911993 C78.8340269,19.7678083 78.6129107,20.5147172 78.5045912,21.1999865 C78.3033611,22.4730431 78.4783123,23.3360517 79.1414229,23.9329988 C79.8214974,23.3360625 79.9993059,22.4761037 79.7955253,21.2041013 Z M66.2206828,13.2084706 C66.0817233,13.1435434 65.940631,13.0804949 65.7977545,13.0193289 C65.8548605,13.1523385 65.913662,13.2837578 65.974158,13.4132982 C66.9511174,15.5052672 68.0147896,16.5401238 69.3308977,16.5021949 C69.3513136,15.2351138 68.3133126,14.1862284 66.2206828,13.2084706 Z" id="Shape" fill="#009D4F" fill-rule="nonzero"></path>
            <path d="M23,44 C23,30.1928653 34.1928653,19 48,19 C61.8071347,19 73,30.1928653 73,44 C73,57.8071347 61.8071347,69 48,69 C34.1928653,69 23,57.8071347 23,44 Z M36.5217391,23.1304348 C32.4607699,25.1722706 29.2224905,28.3995976 27.1304348,32.5217391 L29.2173913,38.7826087 L24,44 C24.0561964,48.7671442 25.3276267,52.9315584 27.1304348,56.5217391 L34.4347826,57.5652174 L35.4782609,64.8695652 C39.22528,66.7159512 43.2986903,67.9373573 48,68 L52.173913,62.7826087 L59.4782609,64.8695652 C63.4789514,62.8781869 66.6976617,59.6975931 68.8695652,55.4782609 L66.7826087,48.173913 L72,42.9565217 C71.8799872,39.4184988 70.8698359,35.8287085 68.8695652,32.5217391 L61.5652174,30.4347826 L59.4782609,23.1304348 C56.067853,21.0551145 52.1597077,20 48,20 C47.8324592,20 47.6602792,20.0018211 48,20 L42.7826087,25.2173913 L36.5217391,23.1304348 L36.5217391,23.1304348 Z" id="ball" stroke="#00A860" stroke-width="4" stroke-linecap="square"></path>
            <path d="M35,40.5389889 L44.6149085,31 L57.4990991,34.502641 L52.7543362,39.3048514 L59.2543784,41.0534771 L61,47.4960267 L51.4502592,57.0691233 L38.5648178,53.561925 L43.2926343,48.8207202 L36.8236713,47.0637669 L35,40.5389889 Z M48.0412521,44.1038716 L43.2894223,48.8335926 L49.8299372,50.5868643 L54.50084,45.8295023 L48.0412521,44.1038716 Z M46.293014,37.5295431 L41.5642869,42.3266434 L48.0593676,44.1216642 L52.7757046,39.322553 L46.293014,37.5295431 Z" id="s" fill="#00A860"></path>
        </g>
    </g>
</svg>