<svg width="96" height="96" viewBox="0 0 96 96" xmlns="http://www.w3.org/2000/svg"><title>clubs</title><path d="M70.533 20.392c-3.64.786-6.393-1.453-8.183-5.286a20.629 20.629 0 0 1-1.177-3.244 17.994 17.994 0 0 1-.356-1.51 2 2 0 0 1 2.333-2.319c.322.06.848.179 1.511.364a21.14 21.14 0 0 1 3.253 1.188c3.76 1.756 5.997 4.407 5.357 7.888.562.495 1.107 1.01 1.635 1.544.264-.91.63-1.831 1.072-2.754a20.56 20.56 0 0 1 1.507-2.658 2 2 0 0 1 3.287-.01c.398.57.963 1.497 1.528 2.658.708 1.456 1.219 2.906 1.445 4.318.467 2.912-.354 5.413-2.7 6.93.485.934.932 1.89 1.338 2.867a16.84 16.84 0 0 1 1.65-1.833c1.207-1.168 2.401-2.054 3.236-2.578a2 2 0 0 1 3.02 1.28c.054.254.128.676.2 1.227.207 1.56.267 3.176.09 4.727-.428 3.748-2.212 6.437-5.608 6.984.109.889.185 1.783.227 2.68.832-.438 1.783-.784 2.829-1.042a19.745 19.745 0 0 1 3.331-.504 21.392 21.392 0 0 1 2.158-.047 2 2 0 0 1 1.748 2.784c-.426.998-1.183 2.427-2.247 3.875-2.43 3.309-5.38 5.075-8.563 4.066a34.664 34.664 0 0 1-.542 2.17c.465-.055.949-.081 1.448-.08 1.423.005 2.904.229 4.378.598a19.47 19.47 0 0 1 2.007.605 2 2 0 0 1 .79 3.204c-.584.655-1.548 1.591-2.776 2.532-1.797 1.376-3.613 2.317-5.445 2.602-1.526.237-2.969-.012-4.228-.77-.475.769-.98 1.518-1.513 2.247 1.241.244 2.511.69 3.785 1.281a20.631 20.631 0 0 1 2.647 1.452 2 2 0 0 1 .046 3.298c-.576.407-1.515.986-2.69 1.565-1.467.723-2.93 1.246-4.352 1.48-2.595.425-4.869-.169-6.42-1.961-3.508 2.671-7.582 4.726-12.089 5.984l.547-.077c-.59.168-2.777.766-2.74.756-1.122.31-1.984.562-2.816.829-.985.315-1.892.643-2.723.989a12.243 12.243 0 0 1 3.032 4.604 2 2 0 1 1-3.743 1.41c-.588-1.56-1.592-2.844-3.057-3.944-1.465 1.1-2.47 2.385-3.057 3.944a2 2 0 0 1-3.743-1.41 12.243 12.243 0 0 1 3.032-4.604 34.326 34.326 0 0 0-2.723-.99 72.732 72.732 0 0 0-2.816-.828c.037.01-2.15-.588-2.193-.68l-.547-.076a34.503 34.503 0 0 1-11.606-5.834c-1.55 1.735-3.797 2.308-6.356 1.888-1.423-.234-2.885-.757-4.352-1.48-1.175-.579-2.114-1.158-2.69-1.565a2 2 0 0 1 .046-3.298 20.631 20.631 0 0 1 2.647-1.452c1.257-.583 2.51-1.025 3.736-1.271a34.806 34.806 0 0 1-1.491-2.24c-1.254.745-2.686.988-4.201.753-1.832-.285-3.648-1.226-5.445-2.602-1.228-.94-2.192-1.877-2.776-2.532a2 2 0 0 1 .79-3.204 19.47 19.47 0 0 1 2.007-.605c1.474-.37 2.955-.593 4.378-.598.498-.001.98.025 1.442.08a34.972 34.972 0 0 1-.538-2.17c-3.182 1.008-6.132-.758-8.561-4.066-1.064-1.448-1.82-2.877-2.247-3.875a2 2 0 0 1 1.748-2.784l.17-.005c.542-.014 1.22-.002 1.988.052 1.136.08 2.26.24 3.331.504 1.046.258 1.997.604 2.829 1.042a35.77 35.77 0 0 1 .227-2.68c-3.396-.547-5.18-3.236-5.608-6.984-.177-1.551-.117-3.168.09-4.727.072-.551.146-.973.2-1.227a2 2 0 0 1 3.02-1.28c.835.524 2.03 1.41 3.235 2.578a16.728 16.728 0 0 1 1.65 1.833c.407-.976.854-1.933 1.339-2.867-2.346-1.517-3.167-4.018-2.7-6.93.226-1.412.737-2.862 1.445-4.318a20.496 20.496 0 0 1 1.528-2.658 2 2 0 0 1 3.287.01c.392.57.95 1.497 1.507 2.658.443.923.808 1.844 1.072 2.754a32.417 32.417 0 0 1 1.635-1.544c-.64-3.481 1.597-6.132 5.357-7.888a21.14 21.14 0 0 1 3.253-1.188 18.454 18.454 0 0 1 1.511-.364 2 2 0 0 1 2.333 2.32c-.058.323-.173.847-.356 1.509a20.64 20.64 0 0 1-1.177 3.244c-1.79 3.833-4.542 6.072-8.183 5.286-6.62 5.779-10.706 14.87-10.706 24.176a31.27 31.27 0 0 0 8.362 21.33c.654.424 1.23.987 1.71 1.696 3.31 3.034 7.28 5.325 11.667 6.6l.547.076c.566.16 2.733.754 2.713.748 1.168.323 2.076.589 2.968.874 1.988.636 3.744 1.337 5.272 2.146 1.528-.809 3.284-1.51 5.272-2.146.892-.285 1.8-.55 2.968-.874-.02.006 2.147-.587 3.26-.824l-.547.076a30.508 30.508 0 0 0 12.466-7.025c.349-.448.74-.83 1.169-1.147 5.404-5.6 8.651-13.226 8.651-21.53 0-9.306-4.086-18.397-10.706-24.176zM18.55 68.959c-.67.1-1.398.305-2.154.593.789.325 1.547.557 2.242.671 1.249.205 2.104.041 2.707-.6-.602-.677-1.487-.861-2.795-.664zm-7.9-10.882c-.482.002-.989.04-1.51.108 1.145.81 2.237 1.337 3.159 1.48.629.098 1.148.02 1.621-.287-.524-.918-1.574-1.306-3.27-1.3zm-3.635-12.38a13.24 13.24 0 0 0-.834-.177l.025.033c1.481 2.018 2.827 2.9 4.158 2.568-.227-1.173-1.323-1.925-3.35-2.425zm4.383-9.87c.337-1.104-.412-2.63-2.08-4.286.007.408.032.81.076 1.197.217 1.897.79 2.991 1.892 3.378a2.07 2.07 0 0 0 .112-.289zM17.495 21.2c-.108-.685-.329-1.432-.64-2.209-.316.779-.54 1.527-.65 2.213-.204 1.272-.026 2.132.654 2.729.663-.597.838-1.46.636-2.733zm12.53-7.787c.061-.13.12-.26.177-.394-.143.061-.284.125-.423.19-2.092.977-3.13 2.026-3.11 3.293 1.316.038 2.38-.997 3.357-3.089zm47.336 56.81c.695-.114 1.453-.346 2.242-.671a10.575 10.575 0 0 0-2.154-.593c-1.308-.197-2.193-.013-2.795.665.603.64 1.458.804 2.707.6zm6.34-10.558c.921-.143 2.013-.67 3.158-1.48a11.866 11.866 0 0 0-1.51-.108c-1.696-.005-2.746.383-3.27 1.3.473.308.992.386 1.621.288zm6.092-14.112c.009-.01.017-.022.025-.033-.285.051-.563.11-.834.176-2.026.5-3.122 1.252-3.349 2.425 1.33.332 2.677-.55 4.158-2.568zm-3.188-12.815c.044-.388.069-.789.076-1.197-1.668 1.655-2.417 3.182-2.08 4.286.029.096.066.192.112.29 1.102-.388 1.675-1.482 1.892-3.38zm-6.81-11.534c-.11-.686-.334-1.434-.65-2.213-.311.777-.532 1.524-.64 2.209-.202 1.273-.027 2.136.636 2.733.68-.597.858-1.457.655-2.729zm-13.574-7.996c-.14-.064-.28-.128-.423-.189.057.133.116.265.176.394.977 2.092 2.04 3.127 3.357 3.09.02-1.268-1.018-2.317-3.11-3.295zM48 69.204c-13.805 0-25-11.137-25-24.881C23 30.578 34.195 19.44 48 19.44s25 11.137 25 24.882c0 13.744-11.195 24.881-25 24.881zm0-4c11.6 0 21-9.351 21-20.881S59.6 23.44 48 23.44s-21 9.351-21 20.882c0 11.53 9.4 20.881 21 20.881zm1.172-31.655l9.61 6.946a2 2 0 0 1 .73 2.244l-3.697 11.277a2 2 0 0 1-1.9 1.378h-11.83a2 2 0 0 1-1.9-1.378L36.49 42.74a2 2 0 0 1 .729-2.244l9.61-6.946a2 2 0 0 1 2.344 0zm-8.427 9.332l2.79 8.513h8.93l2.79-8.513L48 37.638l-7.255 5.243zM50 29.98v5.19a2 2 0 1 1-4 0v-5.19l-7.06-5.121a2 2 0 1 1 2.349-3.238L48 26.488l6.711-4.868a2 2 0 1 1 2.35 3.238L50 29.979zm4.768 27.145l-2.283-2.331a2 2 0 0 1 2.858-2.799l2.533 2.587h9.017a2 2 0 1 1 0 4h-8.39l-2.517 7.998a2 2 0 0 1-3.815-1.2l2.597-8.255zM38.124 54.58l2.533-2.587a2 2 0 1 1 2.858 2.799l-2.283 2.33 2.597 8.255a2 2 0 1 1-3.815 1.2l-2.517-7.997h-8.39a2 2 0 1 1 0-4h9.017zm24.325-12.67l-3.936 1.99a2 2 0 1 1-1.805-3.57l4.27-2.158 2.781-8.527a2 2 0 1 1 3.803 1.241l-2.582 7.915 6.765 4.787a2 2 0 1 1-2.311 3.265l-6.985-4.943zm-27.427-3.738l4.27 2.158a2 2 0 0 1-1.805 3.57l-3.936-1.99-6.985 4.943a2 2 0 0 1-2.31-3.265l6.764-4.787-2.582-7.915a2 2 0 1 1 3.803-1.24l2.781 8.526z" fill="#19A974"/></svg>