<?xml version="1.0" encoding="UTF-8"?>
<svg width="96px" height="96px" viewBox="0 0 96 96" version="1.1" xmlns="http://www.w3.org/2000/svg" xmlns:xlink="http://www.w3.org/1999/xlink">
    <!-- Generator: Sketch 43.2 (39069) - http://www.bohemiancoding.com/sketch -->
    <title>coaches</title>
    <desc>Created with Sketch.</desc>
    <defs></defs>
    <g id="Page-1" stroke="none" stroke-width="1" fill="none" fill-rule="evenodd">
        <g id="coaches" fill-rule="nonzero" fill="#00A651">
            <path d="M57.4247955,35.841292 L96,35.841292 L94.75,55.4000015 L59.1835144,62.4674231 C59.301243,63.5683303 59.3615489,64.6178126 59.3615489,65.6481102 C59.3615489,82.1220236 46.0874821,95.4549284 29.6752356,95.4549284 C12.6944535,95.4549284 -0.841462791,81.2350462 -0.00765272495,64.1711806 C0.822890799,48.3209065 14.3682034,35.841292 30.4410472,35.841292 L52.9478764,35.841292 L52.9478764,42.1729554 L57.4247955,41.3192121 L57.4247955,35.841292 Z M30.4410472,40.8400002 C16.9960957,40.8400002 5.6751383,51.2715559 4.98594304,64.4240118 C4.29200165,78.6257397 15.5522151,90.4549284 29.6752356,90.4549284 C43.321096,90.4549284 54.3615489,79.365538 54.3615489,65.6481102 C54.3615489,64.191824 54.2116372,62.6430399 53.9166383,60.8652011 L53.5170345,58.4569507 L55.9150898,58.0001311 L90.2330294,51.6532082 L90.9829025,40.841292 L62.4247955,40.841292 L62.4247955,45.5 L47.9500008,48.5999985 L47.9478764,40.841292 L30.4410472,40.8400002 Z M29.6752356,76.89767 C35.8544325,76.89767 40.8641187,71.8657781 40.8641187,65.6481102 C40.8641187,59.4304423 35.8544325,54.3985503 29.6752356,54.3985503 C23.4960387,54.3985503 18.4863524,59.4304423 18.4863524,65.6481102 C18.4863524,71.8657781 23.4960387,76.89767 29.6752356,76.89767 Z M29.6752356,81.89767 C20.7296525,81.89767 13.4863524,74.6222636 13.4863524,65.6481102 C13.4863524,56.6739567 20.7296525,49.3985503 29.6752356,49.3985503 C38.6208186,49.3985503 45.8641187,56.6739567 45.8641187,65.6481102 C45.8641187,74.6222636 38.6208186,81.89767 29.6752356,81.89767 Z M65.5053692,25.9628692 L72.763414,6.17207789 C73.3401527,4.73171981 74.84613,4.04789142 76.3154282,4.5389677 C77.7570803,5.11503316 78.4420786,6.62047352 77.9605649,8.06215554 L70.7103857,27.8326668 C70.2838037,28.9690441 69.2533762,29.6552866 68.1092033,29.6552866 C67.9056187,29.6552866 67.8042375,29.6516856 67.6551339,29.6305017 C67.4618903,29.6030465 67.2770869,29.5499516 67.0969999,29.4630015 C65.760935,28.8588772 65.0387472,27.3599285 65.5053692,25.9628692 Z M45.1021421,29.6374338 C44.9717992,29.6526767 44.8825327,29.6552866 44.7016484,29.6552866 C43.533111,29.6552866 42.5790048,28.9508058 42.1176782,27.8754885 L34.8314038,8.00548099 C34.3882254,6.52974474 35.1355525,4.98997411 36.5505496,4.51879537 C37.9565244,4.05062102 39.5990235,4.82276372 40.057955,6.19950454 L47.3243654,26.0195437 C47.7610521,27.473663 47.0418554,28.9899545 45.6669697,29.4848392 C45.4845031,29.5667247 45.2979707,29.6145327 45.1021421,29.6374338 Z M56.356456,29.6552866 C54.9387356,29.6552866 53.7456301,28.4634129 53.593544,26.8941947 L53.593544,5.85893034 C53.593544,4.32802982 54.8250068,3.09783844 56.356456,3.09783844 C57.8879053,3.09783844 59.1193681,4.32802982 59.1193681,5.85893034 L59.1193681,26.8941947 C59.1193681,28.4250952 57.8879053,29.6552866 56.356456,29.6552866 Z" id="Shape"></path>
        </g>
    </g>
</svg>