<svg width="96" height="96" viewBox="0 0 96 96" xmlns="http://www.w3.org/2000/svg"><title>coaches</title><path d="M57.425 38.822a2.95 2.95 0 0 1 2.978-2.98h29.58c3.469 0 6.274 3.083 5.932 6.515l-.962 8.985c-.327 2.623-2.196 4.735-4.79 5.224l-30.98 5.901c.118 1.101.179 2.15.179 3.181 0 16.474-13.275 29.807-29.687 29.807-16.98 0-30.516-14.22-29.683-31.284.83-15.85 14.376-28.33 30.449-28.33h19.528a2.95 2.95 0 0 1 2.979 2.981v3.351l4.477-.854v-2.497zm-26.984 2.02c-13.445 0-24.766 10.43-25.455 23.582-.694 14.202 10.566 26.03 24.69 26.03 13.645 0 24.686-11.088 24.686-24.806 0-1.456-.15-3.005-.445-4.783l-.4-2.408L55.915 58l33.318-6.347c.4-.075.693-.405.753-.886l.955-8.924c.047-.466-.441-1.002-.958-1.002H62.425v1.73c0 1.659-1.112 3.08-2.798 3.418l-7.618 1.452c-2.092.35-4.061-1.298-4.061-3.427v-3.173H30.44zm-.766 36.056c6.18 0 11.19-5.032 11.19-11.25s-5.01-11.25-11.19-11.25c-6.179 0-11.189 5.032-11.189 11.25s5.01 11.25 11.19 11.25zm0 5c-8.945 0-16.189-7.276-16.189-16.25s7.244-16.25 16.19-16.25c8.945 0 16.188 7.276 16.188 16.25s-7.243 16.25-16.189 16.25zm35.83-55.935l7.258-19.79c.577-1.441 2.083-2.125 3.552-1.634 1.442.576 2.127 2.081 1.646 3.523l-7.25 19.77c-.427 1.137-1.458 1.823-2.602 1.823a2.84 2.84 0 0 1-.454-.024 1.874 1.874 0 0 1-.558-.168c-1.336-.604-2.058-2.103-1.592-3.5zm-20.403 3.674a2.91 2.91 0 0 1-.4.018c-1.169 0-2.123-.704-2.584-1.78L34.83 8.005c-.443-1.475.305-3.015 1.72-3.486 1.406-.468 3.048.304 3.507 1.68l7.266 19.82c.437 1.455-.282 2.971-1.657 3.466a1.9 1.9 0 0 1-.565.152zm11.254.018c-1.417 0-2.61-1.192-2.762-2.76V5.858a2.755 2.755 0 0 1 2.762-2.761 2.755 2.755 0 0 1 2.763 2.76v21.036a2.755 2.755 0 0 1-2.763 2.761z" fill="#19A974"/></svg>