<?xml version="1.0" encoding="UTF-8"?>
<svg width="32px" height="32px" viewBox="0 0 32 32" version="1.1" xmlns="http://www.w3.org/2000/svg" xmlns:xlink="http://www.w3.org/1999/xlink" style="background: #00A860;">
    <!-- Generator: Sketch 43.2 (39069) - http://www.bohemiancoding.com/sketch -->
    <title>facebook-white</title>
    <desc>Created with Sketch.</desc>
    <defs></defs>
    <g id="Page-1" stroke="none" stroke-width="1" fill="none" fill-rule="evenodd">
        <g id="facebook-white" fill="#FFFFFF">
            <path d="M30.2337857,32 L1.7662143,32 C0.790486111,32 0,31.2092741 0,30.2339056 L0,1.7660944 C0,0.790486111 0.790486111,0 1.7662143,0 L30.2337857,0 C31.2091542,0 31.9998801,0.790486111 31.9998801,1.7660944 L31.9998801,30.2339056 C31.9998801,31.2092741 31.2091542,32 30.2337857,32 Z M22.0794173,32 L22.0794173,19.6079642 L26.2389113,19.6079642 L26.8616604,14.7784813 L22.0794173,14.7784813 L22.0794173,11.69507 C22.0794173,10.296822 22.4676463,9.34399424 24.4728169,9.34399424 L27.0302367,9.34279527 L27.0302367,5.02335759 C26.587694,4.96460767 25.069788,4.8330798 23.3036936,4.8330798 C19.616477,4.8330798 17.0921489,7.08368116 17.0921489,11.2169176 L17.0921489,14.7784813 L12.921984,14.7784813 L12.921984,19.6079642 L17.0921489,19.6079642 L17.0921489,32 L22.0794173,32 Z" id="facebook"></path>
        </g>
    </g>
</svg>