<svg width="78" height="73" viewBox="0 0 78 73" xmlns="http://www.w3.org/2000/svg"><title>family-orange</title><g fill="#E96438"><path d="M62.7 40.6c.7-.2 1.1-.9.9-1.5-.2-.7-.9-1.1-1.5-.9-3.8 1-7.2.1-7.2.1-.7-.2-1.4.2-1.5.9-.1.7.2 1.4.9 1.5.1 0 1.8.5 4.2.5 1.1-.1 2.6-.2 4.2-.6zm-6-4.9h4c.7 0 1.2-.6 1.2-1.2s-.6-1.2-1.2-1.2H58v-5.5c0-.7-.6-1.2-1.2-1.2s-1.2.6-1.2 1.2v6.7c-.1.7.4 1.2 1.1 1.2z"/><circle cx="48.8" cy="28.2" r="2.3"/><circle cx="65.3" cy="28.1" r="2.3"/><circle cx="13" cy="27.2" r="2.6"/><circle cx="32.6" cy="27.2" r="2.6"/><circle cx="30.9" cy="52.9" r="2.1"/><circle cx="46.1" cy="53.2" r="2.1"/><path d="M37.8 58.9H41c.7 0 1.2-.6 1.2-1.2s-.6-1.2-1.2-1.2h-1.9v-4.2c0-.7-.6-1.2-1.2-1.2s-1.2.6-1.2 1.2v5.4c-.1.6.4 1.2 1.1 1.2zM22 35h4.3c.7 0 1.2-.6 1.2-1.2s-.6-1.2-1.2-1.2h-3v-5.9c0-.7-.6-1.2-1.2-1.2s-1.2.6-1.2 1.2v7.2c-.2.6.4 1.1 1.1 1.1z"/><path d="M76.2 31.6v-7.4c-.1-10.5-8.6-19-19.2-19-6.3 0-11.8 3-15.3 7.7C38.2 5.6 30.8.5 22.2.5 12.2.5 3.8 7.4 1.3 16.7c-.1.2-.2.3-.2.5v.1c-.3 1.5-.5 3.1-.5 4.8v8.1c0 11.7 9.4 21.2 21 21.6v3.8c0 9.1 7.4 16.6 16.6 16.6 9.1 0 16.6-7.4 16.6-16.6v-4c0-.3 0-.6-.1-.9.8.1 1.5.1 2.3.1 3.5 0 6.7-.9 9.6-2.6.6.1 1.8.1 3.3.1 2.4 0 5.4-.2 7.4-1.3.5-.2.7-.8.7-1.3 0-.1-1-7.7-1.8-14.1zM52.3 51.5v3.9c0 7.8-6.3 14.1-14.1 14.1s-14.1-6.3-14.1-14.1v-3.9c0-.4 0-.8.1-1.2 0-.4.1-.9.2-1.3.1-.8.3-1.5.6-2.3h26.5c0 .1.1.3.1.4.2.5.3 1 .4 1.4.1.4.2.9.2 1.3.1.7.1 1.2.1 1.7zM22.3 3c5.6 0 10.6 2.4 14.1 6.2-.5.3-.9.7-1.4 1-8.5 5.5-21.1 6.2-27.8 6.1-1.2 0-2.3-.1-3-.1C6.6 8.5 13.8 3 22.3 3zM3.2 22.1c0-1.2.1-2.3.3-3.4 1.1.1 2.9.2 5.2.2 7.7 0 20.7-1.1 29.2-7.7.9 1.3 1.7 2.7 2.2 4.3.2.6.4 1.1.5 1.7.2.8.4 1.5.5 2.3.1.9.2 1.7.2 2.6v8c0 1.6-.2 3.2-.6 4.7 0 .1-.1.2-.1.3-.4-.1-.8-.1-1.2-.1-.4 0-.8-.1-1.2-.1-4.4 0-8.4 1.8-11.4 4.6-6.2 1.4-10.2-1.7-10.4-1.8-.5-.4-1.3-.4-1.8.2-.4.5-.4 1.3.2 1.8.2.1 3.4 2.7 8.8 2.7h.8c-.6.8-1 1.7-1.4 2.7-.5 1.3-.9 2.7-1.1 4.1C11.6 49 3.2 40.5 3.2 30.1v-8zm35.1 15.4h.6c.3 0 .6 0 1 .1.1 0 .3 0 .4.1.3 0 .6.1.9.1.2 0 .4.1.6.2.2.1.4.1.6.2 3.4 1 6.2 3.3 8 6.2H26.2c2.5-4.2 7-6.9 12.1-6.9zm33.6-16.2c-3.3-.9-5.4-3.1-6.6-4.9-.9-1.2-1.3-2.2-1.4-2.3 0-.1-.1-.1-.1-.2 1-1 1.9-2.1 2.6-3.3 3.7 2.5 6.2 6.4 7 11l-1.5-.3zM64.3 9.4c-.3.5-.6.9-.9 1.3-4.3 5.5-12.1 7.7-16.6 8.5-1.5.3-2.6.4-3.1.4-.2-1.3-.4-2.7-.8-3.9 2.9-4.8 8.2-8 14.2-8 2.6 0 5 .6 7.2 1.7zM53.5 45.1c-1.9-4.5-5.7-8-10.4-9.4.5-1.8.8-3.6.8-5.6v-8c1.9-.2 11.3-1.2 18-6.4 1 1.9 4.5 7.8 11.8 8.5v7.3c0 9.2-7.5 16.7-16.7 16.7-.9 0-1.8-.1-2.6-.2-.2-1.1-.5-2-.9-2.9zm16.4.6c2-1.8 3.7-4.1 4.8-6.6.3 2.5.6 4.7.8 5.9-1.6.6-3.8.7-5.6.7z"/><path d="M42 61.6c-3 .9-5.3 0-5.4 0-.6-.3-1.4 0-1.6.7-.3.6 0 1.4.6 1.6.1 0 1.5.6 3.7.6 1 0 2.2-.1 3.4-.5.7-.2 1-.9.8-1.6-.2-.7-.9-1.1-1.5-.8z"/></g></svg>