<svg width="74" height="73" viewBox="0 0 74 73" xmlns="http://www.w3.org/2000/svg"><title>football-light-green</title><g fill="none" fill-rule="evenodd"><path d="M73.429 36.382c0 20.073-16.271 36.344-36.345 36.344-20.063 0-36.34-16.271-36.34-36.344C.744 16.313 17.02.041 37.084.041c20.073.001 36.345 16.272 36.345 36.341z" fill="#FFF"/><path fill="#C7FFE3" fill-rule="nonzero" d="M37.084 22.182l-13.508 9.813 5.164 15.879h16.69l5.163-15.879z"/><path d="M73.429 36.382c0 20.073-16.271 36.344-36.345 36.344-20.063 0-36.34-16.271-36.34-36.344C.744 16.313 17.02.041 37.084.041c20.073.001 36.345 16.272 36.345 36.341zM5.604 43.575l13.318 9.673-2.569 7.898A32.314 32.314 0 0 0 34.19 68.55l13.318-9.679 6.722 4.881a32.302 32.302 0 0 0 12.546-14.677l-5.079-15.66 6.72-4.881A32.358 32.358 0 0 0 58.33 12.06H41.869l-2.57-7.898A32.309 32.309 0 0 0 20.518 8.66L15.43 24.316H7.123a32.28 32.28 0 0 0-1.519 19.259z" fill="#C7FFE3" fill-rule="nonzero"/></g></svg>