<?xml version="1.0" encoding="UTF-8"?>
<svg width="32px" height="32px" viewBox="0 0 32 32" version="1.1" xmlns="http://www.w3.org/2000/svg" xmlns:xlink="http://www.w3.org/1999/xlink">
    <!-- Generator: Sketch 43.2 (39069) - http://www.bohemiancoding.com/sketch -->
    <title>instagram-white</title>
    <desc>Created with Sketch.</desc>
    <defs></defs>
    <g id="Page-1" stroke="none" stroke-width="1" fill="none" fill-rule="evenodd">
        <g id="instagram-white" fill="#FFFFFF">
            <g id="instagram">
                <path d="M16,-1.69655956e-15 C11.6546609,-1.69655956e-15 11.1097906,0.018418509 9,-1.69655956e-15 C7.70020701,0.173959642 6.53710992,0.444457676 6,1 C4.46725058,1.24883842 3.57496909,1.79593165 3,3 C1.79593165,3.57496909 1.24883842,4.46725058 1,6 C0.444457676,6.53710992 0.173959642,7.70020701 0,9 C0.018418509,11.1097906 0,11.6546609 0,16 C0,20.3453391 0.018418509,20.8902094 0,23 C0.173959642,24.299793 0.444457676,25.4628901 1,26 C1.24883842,27.5327494 1.79593165,28.4250309 3,29 C3.57496909,30.2040683 4.46725058,30.7511616 6,31 C6.53710992,31.5555423 7.70020701,31.8260404 9,32 C11.1097906,31.9815815 11.6546609,32 16,32 C20.3453391,32 20.8902094,31.9815815 23,32 C24.299793,31.8260404 25.4628901,31.5555423 26,31 C27.5327494,30.7511616 28.4250309,30.2040683 29,29 C30.2040683,28.4250309 30.7511616,27.5327494 31,26 C31.5555423,25.4628901 31.8260404,24.299793 32,23 C31.9815815,20.8902094 32,20.3453391 32,16 C32,11.6546609 31.9815815,11.1097906 32,9 C31.8260404,7.70020701 31.5555423,6.53710992 31,6 C30.7511616,4.46725058 30.2040683,3.57496909 29,3 C28.4250309,1.79593165 27.5327494,1.24883842 26,1 C25.4628901,0.444457676 24.299793,0.173959642 23,-1.69655956e-15 C20.8902094,0.018418509 20.3453391,-1.69655956e-15 16,-1.69655956e-15 Z M16,3 C20.2340271,3 20.7355729,3.01617687 22,3 C23.9536991,3.16296461 24.7933225,3.42129091 25,4 C26.0922556,3.92610983 26.6204901,4.2697266 27,5 C27.7302734,5.37950995 28.0738902,5.90774441 28,7 C28.5787091,7.2066775 28.8370354,8.04630089 29,10 C28.9838231,11.2644271 29,11.7659729 29,16 C29,20.2340271 28.9838231,20.7355729 29,22 C28.8370354,23.9536991 28.5787091,24.7933225 28,25 C28.0738902,26.0922556 27.7302734,26.6204901 27,27 C26.6204901,27.7302734 26.0922556,28.0738902 25,28 C24.7933225,28.5787091 23.9536991,28.8370354 22,29 C20.7358247,28.9838231 20.2343418,29 16,29 C11.7656582,29 11.2642383,28.9838231 10,29 C8.04630089,28.8370354 7.2066775,28.5787091 7,28 C5.90774441,28.0738902 5.37950995,27.7302734 5,27 C4.26978955,26.6204901 3.92610983,26.0922556 4,25 C3.42129091,24.7933225 3.16296461,23.9536991 3,22 C3.01617687,20.7355729 3,20.2340271 3,16 C3,11.7659729 3.01617687,11.2644271 3,10 C3.16296461,8.04630089 3.42129091,7.2066775 4,7 C3.92610983,5.90774441 4.2697266,5.37950995 5,5 C5.37950995,4.2697266 5.90774441,3.92610983 7,4 C7.2066775,3.42129091 8.04630089,3.16296461 10,3 C11.2644271,3.01617687 11.7659729,3 16,3 L16,3 Z M16.4545455,21 C13.2385634,21 11,18.7614366 11,16.4545455 C11,13.2385634 13.2385634,11 16.4545455,11 C18.7614366,11 21,13.2385634 21,16.4545455 C21,18.7614366 18.7614366,21 16.4545455,21 Z M16,8 C20.4183064,8 24,11.5816936 24,16 C24,20.4183064 20.4183064,24 16,24 C11.5816936,24 8,20.4183064 8,16 C8,11.5816936 11.5816936,8 16,8 Z M27,8 C27,9.10461289 26.1045467,10 25,10 C23.8954533,10 23,9.10461289 23,8 C23,6.89545327 23.8954533,6 25,6 C26.1045467,6 27,6.89545327 27,8 Z" id="Fill-1"></path>
            </g>
        </g>
    </g>
</svg>