<?xml version="1.0" encoding="UTF-8"?>
<svg width="32px" height="32px" viewBox="0 0 32 32" version="1.1" xmlns="http://www.w3.org/2000/svg" xmlns:xlink="http://www.w3.org/1999/xlink">
    <!-- Generator: Sketch 43.2 (39069) - http://www.bohemiancoding.com/sketch -->
    <title>linkedin-green</title>
    <desc>Created with Sketch.</desc>
    <defs></defs>
    <g id="Page-1" stroke="none" stroke-width="1" fill="none" fill-rule="evenodd">
        <g id="linkedin-green" fill="#009D4F">
            <path d="M27,27 L22,27 L22,20.005337 C22.1925387,18.6026867 22.1582963,16.2720592 20,16.0026685 C17.1877328,16.2720592 16.805659,18.2444084 17,20.005337 L17.053833,27 L12,27 L12,12 L17,12 L17,15.0020014 C17.320197,13.2948941 18.8908446,12 21,12 C26.0997837,12 27,15.2345072 27,19.0046699 L27,27 Z M7.5,10 C6.11577588,10 5,8.87982555 5,7.5 C5,6.12098207 6.11577588,5 7.5,5 C8.88018731,5 10,6.12098207 10,7.5 C10,8.87982555 8.88018731,10 7.5,10 Z M5,27 L10,27 L10,12 L5,12 L5,27 Z M30,0 L2,0 C1.0577484,0 0,1.0328602 0,2 L0,30 C0,30.9644732 1.0577484,31.9991111 2,32 L30,32 C30.9342518,31.9991111 32,30.9644732 32,30 L32,2 C32,1.0328602 30.9342518,0 30,0 L30,0 Z" id="Fill-1"></path>
        </g>
    </g>
</svg>