<?xml version="1.0" encoding="UTF-8"?>
<svg width="32px" height="32px" viewBox="0 0 32 32" version="1.1" xmlns="http://www.w3.org/2000/svg" xmlns:xlink="http://www.w3.org/1999/xlink">
    <!-- Generator: Sketch 43.2 (39069) - http://www.bohemiancoding.com/sketch -->
    <title>linked-in-green</title>
    <desc>Created with Sketch.</desc>
    <defs></defs>
    <g id="Page-1" stroke="none" stroke-width="1" fill="none" fill-rule="evenodd">
        <g id="linked-in-green" fill="#00A860">
            <path d="M31.0245926,31.0234074 L24.6968889,31.0234074 L24.6968889,21.1211852 C24.6968889,18.7602963 24.6565926,15.7226667 21.4091852,15.7226667 C18.1155556,15.7226667 17.613037,18.2957037 17.613037,20.9528889 L17.613037,31.0234074 L11.2924444,31.0234074 L11.2924444,10.6619259 L17.3582222,10.6619259 L17.3582222,13.4459259 L17.4459259,13.4459259 C18.2897778,11.8447407 20.3543704,10.157037 23.4322963,10.157037 C29.8405926,10.157037 31.0245926,14.3727407 31.0245926,19.8565926 L31.0245926,31.0234074 Z M4.15762963,7.8802963 C2.12503704,7.8802963 0.485925926,6.23644444 0.485925926,4.20977778 C0.485925926,2.1842963 2.12503704,0.540444444 4.15762963,0.540444444 C6.18192593,0.540444444 7.82459259,2.1842963 7.82459259,4.20977778 C7.82459259,6.23644444 6.18192593,7.8802963 4.15762963,7.8802963 Z M0.988444444,31.0234074 L7.32325926,31.0234074 L7.32325926,10.6619259 L0.988444444,10.6619259 L0.988444444,31.0234074 Z" id="Path"></path>
        </g>
    </g>
</svg>