<svg width="96" height="96" viewBox="0 0 96 96" xmlns="http://www.w3.org/2000/svg" xmlns:xlink="http://www.w3.org/1999/xlink"><title>players</title><defs><path d="M89.736 53.18c-1.979-.999-6.443-3-12.096-5.532-11.944-5.354-28.302-12.686-34.188-16.379-1.199-.75-2.275-1.443-3.247-2.067-5.667-3.64-8.511-5.462-11.445-3.223-1.986 1.516-4.04 3.082-4.156 5.19-.06 1.12.421 2.175 1.432 3.139 1.64 1.562 4.103 3.785 5.819 5.319-3.094 1.577-5.916 2.31-7.459 2.31-7.684 0-8.616-2.496-9.52-4.909-.615-1.649-1.546-4.14-4.912-4.14C5.356 32.888 1 43.96 1 55.671c0 9.697 3.165 11.914 8.546 12.405l.364 1.844c.08.618.605 1.08 1.228 1.08h4.409c.623 0 1.149-.462 1.228-1.08l.347-1.71h6.664l.346 1.71c.08.618.606 1.08 1.229 1.08h4.408c.623 0 1.15-.462 1.229-1.08l.346-1.71h19.087l.347 1.71c.079.618.605 1.08 1.228 1.08h4.409c.623 0 1.149-.462 1.228-1.08l.347-1.71h6.663L65 69.92c.08.618.606 1.08 1.229 1.08h4.408c.623 0 1.15-.462 1.228-1.08l.347-1.71h6.664l.346 1.71c.08.618.606 1.08 1.229 1.08h4.408c.623 0 1.15-.462 1.229-1.08l.353-1.753c4.468-.21 7.586-2.24 8.375-5.557.847-3.55-1.29-7.516-5.08-9.43zm-61.14-21.564a1.905 1.905 0 0 1-.253-.285c.298-.588 1.945-1.844 2.668-2.397.832-.638 2.92.656 7.186 3.394l1.746 1.119a26.628 26.628 0 0 1-4.746 4.182c-1.625-1.446-4.717-4.217-6.6-6.013zm-18.531 4.989c.594.004.72.087 1.332 1.725 1.383 3.706 3.528 7.325 12.998 7.325 4.4 0 13.063-3.55 18.757-10.242 4.088 2.322 10.776 5.527 17.828 8.775.982 2.84.617 5.639-1.11 8.338-3.84 5.993-13.553 10.41-22.471 11.966h-9.97c-.613-6.72-4.536-12.415-11.459-16.548-3.783-2.26-7.525-3.508-9.625-4.097 1.25-4.242 2.897-6.854 3.72-7.242zm3.545 27.888c-7.011 0-8.896 0-8.896-8.822 0-3.558.38-6.33.979-9.02 4.635 1.326 17.525 5.78 18.796 17.842H13.61zm77.593-2.742c-.414 1.742-2.424 2.742-5.513 2.742l-38.546.201c6.38-2.376 12.33-5.787 15.283-10.398 1.711-2.672 2.332-5.513 1.887-8.362 4.225 1.927 8.002 3.398 11.806 5.104 5.387 2.414 10.038 4.5 11.942 5.46 2.235 1.128 3.586 3.386 3.141 5.253z" id="a"/></defs><g fill="none" fill-rule="evenodd"><g fill-rule="nonzero"><use fill="#19A974" fill-rule="evenodd" xlink:href="#a"/><path stroke="#19A974" d="M30.97 39.506c-2.568 1.224-5.076 1.931-6.574 1.931-6.031 0-7.754-1.146-8.964-4.352l-.087-.232c-1.145-3.068-2.376-4.465-5.38-4.465C4.952 32.388.5 43.705.5 55.671c0 8.897 2.497 12.189 8.627 12.865l.292 1.48c.106.835.845 1.484 1.72 1.484h4.408c.874 0 1.613-.65 1.724-1.517l.26-1.274h5.846l.265 1.31c.106.832.844 1.481 1.719 1.481h4.408a1.74 1.74 0 0 0 1.725-1.517l.259-1.274h18.27l.265 1.31c.105.832.844 1.481 1.718 1.481h4.409c.874 0 1.613-.65 1.724-1.517l.26-1.274h5.846l.265 1.31c.105.832.844 1.481 1.719 1.481h4.408c.875 0 1.613-.65 1.724-1.517l.26-1.274h5.846l.265 1.31c.106.832.844 1.481 1.719 1.481h4.408c.875 0 1.614-.65 1.725-1.517l.27-1.34c4.488-.32 7.63-2.474 8.448-5.917.904-3.788-1.354-7.98-5.34-9.992-1.688-.852-4.225-2.006-12.118-5.543a1898.877 1898.877 0 0 1-13.606-6.144c-10.261-4.701-17.16-8.092-20.52-10.201-.974-.61-1.562-.985-3.243-2.065-7.276-4.673-9.198-5.351-12.018-3.2l-.203.155c-2.916 2.229-4.045 3.49-4.15 5.406-.068 1.276.476 2.468 1.587 3.528 1.29 1.23 3.163 2.94 5.279 4.836zm-1.983-8.209a9.32 9.32 0 0 1 .813-.761c.107-.092.22-.186.34-.284.356-.29.65-.519 1.175-.92.448-.344 1.887.384 6.612 3.417a3436.378 3436.378 0 0 0 1.248.8 26.169 26.169 0 0 1-3.942 3.443c-2.435-2.17-4.755-4.275-6.246-5.695zM10.185 37.11c.23.026.296.197.744 1.395 1.983 5.314 5.215 7.65 13.466 7.65 5.264 0 13.658-4.177 18.868-10.106 3.695 2.071 9.474 4.89 17.312 8.503.848 2.628.476 5.201-1.127 7.704C55.95 57.718 46.895 62.328 37.313 64l-9.433-.007c-.762-6.702-4.768-12.366-11.653-16.477-3.034-1.812-6.227-3.12-9.256-4.008 1.028-3.296 2.429-5.88 3.214-6.397zM6.068 47.28c3.564 1.063 6.947 2.529 9.997 4.674 4.381 3.083 7.17 7.046 7.86 12.038H13.61c-7.697 0-8.396-.572-8.396-8.322 0-3.062.277-5.646.854-8.39zm43.722 16.9c6.06-2.573 10.61-5.791 13.058-9.615 1.587-2.479 2.283-5.126 2.066-7.812 1.018.457 2.072.917 3.26 1.425.906.387 4.186 1.771 3.868 1.637a218.434 218.434 0 0 1 3.874 1.678c7.686 3.445 10.329 4.647 11.92 5.45 2.045 1.032 3.266 3.073 2.881 4.69-.349 1.467-2.142 2.36-5.027 2.36l-35.9.186z"/></g><path d="M87.08 70.047A2.238 2.238 0 0 1 84.86 72h-4.41c-1.125 0-2.076-.836-2.208-1.882l-.184-.909h-5.03l-.17.838A2.238 2.238 0 0 1 70.636 72h-4.408c-1.127 0-2.078-.836-2.209-1.882l-.184-.909h-5.03l-.171.838A2.238 2.238 0 0 1 56.415 72h-4.409c-1.126 0-2.077-.836-2.208-1.882l-.185-.909H32.161l-.171.838A2.238 2.238 0 0 1 29.77 72h-4.41c-1.125 0-2.076-.836-2.208-1.882l-.184-.909h-5.03l-.17.838A2.238 2.238 0 0 1 15.546 72h-4.409c-1.126 0-2.077-.836-2.21-1.887l-.221-1.124C2.572 68.189 0 64.636 0 55.67c0-12.22 4.55-23.783 9.964-23.783 3.276 0 4.64 1.548 5.85 4.79l.086.23c1.135 3.009 2.67 4.03 8.496 4.03 1.286 0 3.416-.57 5.673-1.569a240.696 240.696 0 0 1-4.724-4.337c-1.21-1.155-1.817-2.485-1.74-3.918.116-2.122 1.308-3.454 4.345-5.775l.203-.155c1.703-1.3 3.483-1.501 5.637-.74 1.625.573 2.988 1.369 6.955 3.917a291.133 291.133 0 0 0 3.238 2.061c3.336 2.093 10.224 5.48 20.463 10.17a1899.446 1899.446 0 0 0 13.603 6.143c7.905 3.543 10.44 4.696 12.137 5.552 4.184 2.113 6.563 6.53 5.603 10.555-.851 3.578-4.03 5.84-8.52 6.269l-.19.936zM37.657 33.17c-2.684-1.723-3.827-2.425-4.791-2.912-.52-.263-.909-.414-1.173-.466-.124-.025-.125-.025-.075-.063a41.43 41.43 0 0 0-1.161.91 16.828 16.828 0 0 0-.753.649 303.265 303.265 0 0 0 5.562 5.063 25.752 25.752 0 0 0 3.128-2.709 4689.8 4689.8 0 0 1-.737-.472zM6.971 43.507c3.03.888 6.222 2.196 9.256 4.008 6.885 4.111 10.891 9.775 11.653 16.477l9.433.007c9.582-1.671 18.637-6.28 22.135-11.743 1.603-2.503 1.975-5.076 1.127-7.704-7.838-3.612-13.617-6.432-17.312-8.503-5.21 5.929-13.604 10.106-18.868 10.106-8.251 0-11.483-2.336-13.466-7.65-.448-1.198-.514-1.37-.744-1.395-.785.518-2.185 3.1-3.214 6.397zM5.714 55.67c0 4.205.441 6.118 1.452 6.945.894.732 2.117.877 6.444.877h9.73c-.795-4.576-3.456-8.239-7.563-11.129-2.849-2.004-6.004-3.41-9.33-4.444-.495 2.514-.733 4.925-.733 7.75zm79.976 7.822c2.68 0 4.257-.784 4.54-1.974.327-1.369-.764-3.193-2.619-4.129-1.581-.798-4.226-2-11.9-5.44l-.646-.287a217.97 217.97 0 0 0-3.218-1.387c.319.135-2.963-1.25-3.87-1.637a207.48 207.48 0 0 1-2.525-1.098c.034 2.512-.7 4.979-2.183 7.294-2.21 3.45-6.053 6.399-11.128 8.833l33.55-.175z" fill="#19A974"/></g></svg>