<?xml version="1.0" encoding="UTF-8"?>
<svg width="96px" height="96px" viewBox="0 0 96 96" version="1.1" xmlns="http://www.w3.org/2000/svg" xmlns:xlink="http://www.w3.org/1999/xlink">
    <!-- Generator: Sketch 43.2 (39069) - http://www.bohemiancoding.com/sketch -->
    <title>players</title>
    <desc>Created with Sketch.</desc>
    <defs></defs>
    <g id="Page-1" stroke="none" stroke-width="1" fill="none" fill-rule="evenodd">
        <g id="players" fill="#19A974">
            <path d="M87.0797301,70.0470102 C86.9364951,71.1641367 85.9854458,72 84.8594128,72 L80.4509084,72 C79.3248753,72 78.373826,71.1641367 78.2424037,70.1184989 L78.0581024,69.2092909 L73.0285292,69.2092909 L72.85735,70.0470102 C72.7141151,71.1641367 71.7630658,72 70.6370327,72 L66.2285283,72 C65.1024953,72 64.1514459,71.1641367 64.0200237,70.1184989 L63.8357223,69.2092909 L58.8061491,69.2092909 L58.63497,70.0470102 C58.491735,71.1641367 57.5406857,72 56.4146526,72 L52.0061482,72 C50.8801152,72 49.9290659,71.1641367 49.7976436,70.1184989 L49.6133422,69.2092909 L32.1607027,69.2092909 L31.9895236,70.0470102 C31.8462886,71.1641367 30.8952393,72 29.7692062,72 L25.3607018,72 C24.2346688,72 23.2836195,71.1641367 23.1521972,70.1184989 L22.9678958,69.2092909 L17.9383227,69.2092909 L17.7671435,70.0470102 C17.6239085,71.1641367 16.6728592,72 15.5468262,72 L11.1383218,72 C10.0122887,72 9.06123941,71.1641367 8.92881679,70.1134986 L8.70682118,68.9889111 C2.5717149,68.1890218 0,64.6355259 0,55.6709419 C0,43.4503201 4.54936038,31.8883579 9.96437173,31.8883579 C13.2396697,31.8883579 14.603196,33.4355475 15.8134833,36.6777714 C15.8569122,36.7938562 15.8569122,36.7938562 15.8999483,36.9082277 C17.0352602,39.9166697 18.5695258,40.9372257 24.3960319,40.9372257 C25.6817119,40.9372257 27.8116717,40.3688173 30.0693337,39.3694323 C28.18365,37.6737282 26.5243718,36.1547694 25.3454351,35.0315867 C24.1348675,33.8770408 23.5279621,32.5465489 23.6055623,31.1144676 C23.7214762,28.99247 24.9133466,27.6603173 27.9503111,25.338817 C28.0519899,25.2611305 28.0519899,25.2611305 28.1533608,25.183753 C29.8562476,23.8844465 31.6360667,23.6825802 33.7903994,24.4432422 C35.4145255,25.0166964 36.778266,25.8128257 40.7451174,28.3605031 C42.4249688,29.4393616 43.0114023,29.8137453 43.983113,30.4222546 C47.3187752,32.5149643 54.2071192,35.9012908 64.4460472,40.5919804 C65.1630822,40.9204707 65.8976302,41.2558657 66.6523044,41.5994091 C69.9010561,43.0783085 72.5283847,44.2606742 78.048798,46.7351708 C85.954023,50.2775863 88.4891549,51.4307195 90.1864607,52.2870691 C94.3698429,54.3999126 96.7489779,58.816215 95.7885708,62.841606 C94.9375913,66.4202869 91.7581609,68.6822802 87.2697116,69.1106922 L87.0797301,70.0470102 Z M37.6571304,33.1699634 C34.9731176,31.4468381 33.8298162,30.7449896 32.8655117,30.2576022 C32.3462892,29.9951722 31.9573141,29.843529 31.693011,29.7917551 C31.5686683,29.7673978 31.5681621,29.7674688 31.6183272,29.7290102 C31.0969097,30.1273378 30.8072044,30.3527473 30.4566697,30.6392074 C30.3395119,30.7349498 30.228406,30.8274705 30.123641,30.9166646 C29.9672309,31.0498278 29.826025,31.1755873 29.7044308,31.2883829 C31.1228721,32.6246484 33.1388874,34.4531939 35.2657105,36.3509255 C36.3855798,35.5264002 37.4343994,34.6217526 38.3938909,33.6424696 C38.2155133,33.5281084 37.9989248,33.3891915 37.6571304,33.1699634 Z M6.97059282,43.5066635 C10.0004805,44.3954084 13.193099,45.7027359 16.2266848,47.5145041 C23.1123954,51.6262466 27.1183271,57.2903486 27.8801503,63.9922244 L37.3127162,63.9993235 C46.8946287,62.3277654 55.9497078,57.7183354 59.4484977,52.2562968 C61.0505656,49.7530903 61.4230089,47.1801617 60.5748202,44.5516297 C52.7374688,40.9395985 46.9575105,38.1200495 43.2625785,36.0493648 C38.053282,41.9778117 29.6590141,46.1546319 24.3947936,46.1546319 C16.1436365,46.1546319 12.9121291,43.8193471 10.92875,38.5050369 C10.4810675,37.3066214 10.4147941,37.1357417 10.1853522,37.1095716 C9.39991897,37.6276333 7.99949612,40.2114946 6.97059282,43.5066635 Z M5.71379345,55.6709419 C5.71379345,59.8760041 6.15528556,61.7894428 7.16590673,62.6164408 C8.06000802,63.3480897 9.28331765,63.4931234 13.6100563,63.4931234 L23.3404099,63.4931234 C22.5448508,58.916819 19.8839216,55.2541869 15.7768885,52.364177 C12.9282779,50.3596853 9.77311728,48.9546568 6.44794527,47.9196897 C5.95210083,50.4340202 5.71379345,52.8447409 5.71379345,55.6709419 Z M85.6903415,63.4931234 C88.3702411,63.4931234 89.9474987,62.7085387 90.2306266,61.5190383 C90.5566221,60.1501653 89.4656894,58.3261747 87.6114285,57.3900261 C86.02991,56.5923348 83.3845025,55.389599 75.7112852,51.9505939 C75.4991856,51.8554929 75.2839367,51.7596757 75.0647593,51.6627738 C74.1112889,51.2412289 73.1294737,50.8188651 71.8473714,50.275998 C72.1659572,50.4108934 68.8842822,49.0259362 67.9778929,48.6385483 C67.072702,48.2516727 66.2450006,47.8925066 65.4517759,47.5412164 C65.486441,50.0529074 64.7519312,52.5200026 63.26885,54.8354758 C61.0595105,58.2858431 57.2156939,61.233632 52.1414138,63.6679232 L85.6903415,63.4931234 Z" id="Shape"></path>
        </g>
    </g>
</svg>