<?xml version="1.0" encoding="UTF-8"?>
<svg width="96px" height="96px" viewBox="0 0 96 96" version="1.1" xmlns="http://www.w3.org/2000/svg" xmlns:xlink="http://www.w3.org/1999/xlink">
    <!-- Generator: Sketch 43.2 (39069) - http://www.bohemiancoding.com/sketch -->
    <title>players</title>
    <desc>Created with Sketch.</desc>
    <defs></defs>
    <g id="Page-1" stroke="none" stroke-width="1" fill="none" fill-rule="evenodd">
        <g id="players" fill="#009D4F">
            <path d="M87,70.0003887 C86.9364951,71.1641367 85.9854458,72 85,72.0003887 L80,72.0003887 C79.3248753,72 78.373826,71.1641367 78,70.0003887 L78,69.0003887 L73,69.0003887 L73,70.0003887 C72.7141151,71.1641367 71.7630658,72 71,72.0003887 L66,72.0003887 C65.1024953,72 64.1514459,71.1641367 64,70.0003887 L64,69.0003887 L59,69.0003887 L59,70.0003887 C58.491735,71.1641367 57.5406857,72 56,72.0003887 L52,72.0003887 C50.8801152,72 49.9290659,71.1641367 50,70.0003887 L50,69.0003887 L32,69.0003887 L32,70.0003887 C31.8462886,71.1641367 30.8952393,72 30,72.0003887 L25,72.0003887 C24.2346688,72 23.2836195,71.1641367 23,70.0003887 L23,69.0003887 L18,69.0003887 L18,70.0003887 C17.6239085,71.1641367 16.6728592,72 16,72.0003887 L11,72.0003887 C10.0122887,72 9.06123941,71.1641367 9,70.0003887 L9,69.0003887 C2.5717149,68.1890218 0,64.6355259 0,56.0003887 C0,43.4503201 4.54936038,31.8883579 10,32.0003887 C13.2396697,31.8883579 14.603196,33.4355475 16,37.0003887 C15.8569122,36.7938562 15.8569122,36.7938562 16,37.0003887 C17.0352602,39.9166697 18.5695258,40.9372257 24,41.0003887 C25.6817119,40.9372257 27.8116717,40.3688173 30,39.0003887 C28.18365,37.6737282 26.5243718,36.1547694 25,35.0003887 C24.1348675,33.8770408 23.5279621,32.5465489 24,31.0003887 C23.7214762,28.99247 24.9133466,27.6603173 28,25.0003887 C28.0519899,25.2611305 28.0519899,25.2611305 28,25.0003887 C29.8562476,23.8844465 31.6360667,23.6825802 34,24.0003887 C35.4145255,25.0166964 36.778266,25.8128257 41,28.0003887 C42.4249688,29.4393616 43.0114023,29.8137453 44,30.0003887 C47.3187752,32.5149643 54.2071192,35.9012908 64,41.0003887 C65.1630822,40.9204707 65.8976302,41.2558657 67,42.0003887 C69.9010561,43.0783085 72.5283847,44.2606742 78,47.0003887 C85.954023,50.2775863 88.4891549,51.4307195 90,52.0003887 C94.3698429,54.3999126 96.7489779,58.816215 96,63.0003887 C94.9375913,66.4202869 91.7581609,68.6822802 87,69.0003887 L87,70.0003887 Z M38,34 C35.4569766,31.815909 34.2728165,31.0739877 33,31 C32.7362718,30.2813587 32.3333958,30.1210573 32,30 C31.9308607,30.0405793 31.9303364,30.0406544 32,30 C31.4422427,30.4210705 31.142184,30.65935 31,31 C30.6577773,31.0633746 30.5427008,31.1611779 30,31 C30.2721919,31.396231 30.1259397,31.5291708 30,32 C31.4691329,33.0609674 33.5571956,34.9939156 36,37 C36.9199168,36.1283976 38.0062187,35.1720983 39,34 C38.8152476,34.0160114 38.5909188,33.8691629 38,34 Z M7,43 C10.0273149,44.3609862 13.2172225,45.6706543 16,47 C23.1280964,51.6047704 27.1306267,57.2790135 28,64 L37,64 C46.890136,62.3254492 55.9375264,57.7077665 59,52 C61.0340529,49.7282605 61.4061801,47.1507254 61,45 C52.7280149,40.8989891 46.9529644,38.074392 43,36 C38.0562965,41.9390611 29.6691564,46.1233594 24,46 C16.1652547,46.1233594 12.9364913,43.7838935 11,38 C10.5074939,37.2595076 10.4412767,37.0883219 10,37 C9.42726338,37.5810942 8.02802964,40.1695816 7,43 Z M6,56 C6,60.2838055 6.45084421,62.2496545 7,63 C8.39591429,63.8509937 9.64513721,64 14,64 L24,64 C23.1875886,59.2983477 20.4702931,55.5353938 16,53 C13.3673084,50.5068287 10.1453122,49.0633155 7,48 C6.24335542,50.5831997 6,53.0599515 6,56 Z M85,64 C88.0896727,63.8265736 89.6608721,63.0481534 90,62 C90.2676558,60.509881 89.1809134,58.7002214 87,58 C85.7583308,56.9800042 83.1230843,55.7867183 75,52 C75.2680548,52.2803794 75.0536327,52.1853151 75,52 C73.885489,51.6709417 72.907445,51.2518964 72,51 C71.9476293,50.8471301 68.6785592,49.4730545 68,49 C66.8739373,48.7048743 66.0494151,48.3485301 65,48 C65.2937691,50.4919568 64.5620805,52.9396682 63,55 C60.8838424,58.6602066 57.0547899,61.5848349 52,64 L85,64 Z" id="Shape"></path>
        </g>
    </g>
</svg>