<?xml version="1.0" encoding="UTF-8"?>
<svg width="895px" height="895px" viewBox="0 0 895 895" version="1.1" xmlns="http://www.w3.org/2000/svg" xmlns:xlink="http://www.w3.org/1999/xlink" style="background: #00A860;">
    <!-- Generator: Sketch 43.2 (39069) - http://www.bohemiancoding.com/sketch -->
    <title>Logo/iOS icon w-o shadow</title>
    <desc>Created with Sketch.</desc>
    <defs>
        <linearGradient x1="0%" y1="0%" x2="100%" y2="100%" id="linearGradient-1">
            <stop stop-color="#00A860" offset="0%"></stop>
            <stop stop-color="#134B1D" offset="100%"></stop>
        </linearGradient>
        <linearGradient x1="0%" y1="0%" x2="100%" y2="100%" id="linearGradient-2">
            <stop stop-color="#006C3E" offset="0%"></stop>
            <stop stop-color="#006C3E" offset="0.55754966%"></stop>
            <stop stop-color="#134B1D" offset="100%"></stop>
        </linearGradient>
    </defs>
    <g id="Symbols" stroke="none" stroke-width="1" fill="none" fill-rule="evenodd">
        <g id="Logo/iOS-icon-w-o-shadow">
            <g id="Group-2">
                <path d="M0,447.5 C0,693.872435 200.128681,894.001116 447.5,894.001116 C693.872435,894.001116 894.001116,693.872435 894.001116,447.5 C894.001116,200.128681 693.872435,0 447.5,0 C200.128681,0 0,200.128681 0,447.5 Z" id="ball" fill="url(#linearGradient-1)"></path>
                <path d="M231.741071,55.9375 C158.580922,96.3336605 98.2678915,156.442701 57.9352679,228.74442 L91.8973214,358.59933 L0.998883929,452.49442 C2.04553978,535.788719 25.7259596,613.351037 65.9263393,679.241071 L186.791295,708.208705 L219.754464,831.071429 C284.570084,870.085679 360.43745,892.834396 441.506696,894.001116 L532.405134,802.103795 L664.257812,838.063616 C736.295277,798.607227 796.243831,739.368594 837.064732,668.253348 L800.106027,528.409598 L895,432.516741 C892.764765,361.669992 873.950675,294.810063 842.059152,235.736607 L699.21875,197.779018 L661.261161,53.9397321 C598.263396,19.6515316 525.474098,0 448.498884,0 C444.878995,0 441.672137,0.0339186458 438.510045,0 L350.608259,87.9017857 L231.741071,55.9375 Z M254.715402,394.559152 L396.55692,253.716518 L585.345982,305.658482 L516.422991,375.580357 L611.316964,401.551339 L637.287946,496.445312 L496.445312,637.287946 L307.65625,585.345982 L376.579241,516.422991 L281.685268,490.452009 L254.715402,394.559152 Z M447.5,446.501116 L516.422991,375.580357 L420.530134,349.609375 L351.607143,420.530134 L446.501116,446.501116 L376.579241,515.424107 L472.472098,541.395089 L541.395089,471.473214 L447.5,446.501116 Z" id="small-s" fill="#FFFFFF"></path>
                <path d="M65.9263393,680.239955 C144.488939,808.546103 285.836617,894.001116 447.5,894.001116 C693.93866,894.001116 894.001116,693.986965 894.001116,447.5 C894.001116,278.74787 800.683597,132.029883 663.258929,55.9375 C958.770565,329.342427 640.766417,957.709819 65.9263393,680.239955 Z" id="shadow" fill="url(#linearGradient-2)" style="mix-blend-mode: multiply;" opacity="0.15"></path>
            </g>
        </g>
    </g>
</svg>