<?xml version="1.0" encoding="UTF-8"?>
<svg width="895px" height="895px" viewBox="0 0 895 895" version="1.1" xmlns="http://www.w3.org/2000/svg" xmlns:xlink="http://www.w3.org/1999/xlink">
    <!-- Generator: Sketch 43.2 (39069) - http://www.bohemiancoding.com/sketch -->
    <title>Logo/icon</title>
    <desc>Created with Sketch.</desc>
    <defs></defs>
    <g id="Symbols" stroke="none" stroke-width="1" fill="none" fill-rule="evenodd">
        <g id="Logo/icon">
            <path d="M0,448 C0,694.647712 200.352288,895 448,895 C694.647712,895 895,694.647712 895,448 C895,200.352288 694.647712,0 448,0 C200.352288,0 0,200.352288 0,448 Z" id="ball" fill="#FFFFFF"></path>
            <path d="M662.05655,54.6204633 C800.795372,130.610229 895,278.186081 895,448 C895,694.647712 694.647712,895 448,895 C286.678071,895 145.425677,809.981688 66.5515541,682.530226 C66.7008353,682.687037 66.8503172,682.843628 67,683 C642.06118,960.505599 960.298142,331.40888 665,58 C664.063987,56.8622716 663.082499,55.7356509 662.056539,54.6204573 Z" id="shadow" fill="#CFE0D8"></path>
            <path d="M57.0260331,228.921236 C20.7034181,293.670734 0,368.391729 0,448 C0,449.723759 0.0097857319,451.445257 0.0293049499,453.164441 C0.337347183,453.06174 0.660825736,453.006449 1,453 L92,359 L58,229 C57.6441504,229.00513 57.3197111,228.978591 57.0260331,228.921236 Z M230.688299,56.0400143 C292.551456,21.7039309 363.424392,1.58822362 438.909874,0.0901258878 L351,88 L232,56 C231.568384,56.0026339 231.131094,56.0160364 230.688258,56.040037 Z M662.181851,54.689119 C737.966092,96.2290946 800.452859,159.132364 841.542012,235.351364 L700,198 L662.181851,54.689119 Z M219.959024,832.84727 C156.557783,795.362944 103.233419,742.727278 64.9726728,679.959593 C65.3159742,679.990872 65.6584364,680.004448 66,680 L187,710 L219.959024,832.84727 Z" id="small-s" fill="#135C29"></path>
            <path d="M662.181851,54.689119 C738.067097,96.2844592 800.619401,159.300077 841.706189,235.65619 L762.012449,214.478833 C744.928756,156.518074 713.105307,102.539455 665,58 C664.109843,56.9180095 663.178557,55.8460648 662.207005,54.784441 L662.181847,54.6891033 Z M894.792713,434.220147 C894.930573,438.796384 895,443.389998 895,448 C895,527.631484 874.116189,602.437344 837.533037,667.233111 L801,529 L894.792709,434.22 Z M664.74125,838.929432 C600.522448,874.647139 526.612693,895 448,895 C446.009697,895 444.022448,894.987059 442.038334,894.961257 L533,803 L664.74125,838.929432 Z M222.629433,834.413647 C158.926036,797.342695 105.2362,745.040141 66.5515541,682.530226 C66.7008353,682.687037 66.8503172,682.843628 67,683 C110.482321,703.983137 152.496279,719.782881 192.887665,730.944933 L220,832 C220.864912,832.808672 221.74145,833.613294 222.629452,834.413664 Z" id="shadow-copy" fill="#2A5135"></path>
            <path d="M255,395 L397,254 L586,306 L517,376 L612,402 L638,497 L497,638 L308,586 L377,517 L282,491 L255,395 Z M448,447 L517,376 L421,350 L352,421 L447,447 L377,516 L473,542 L542,472 L448,447 L448,447 Z" id="Path" fill="#135C29"></path>
        </g>
    </g>
</svg>