<?xml version="1.0" encoding="UTF-8"?>
<svg width="895px" height="895px" viewBox="0 0 895 895" version="1.1" xmlns="http://www.w3.org/2000/svg" xmlns:xlink="http://www.w3.org/1999/xlink">
    <!-- Generator: Sketch 43.2 (39069) - http://www.bohemiancoding.com/sketch -->
    <title>Logo/icon</title>
    <desc>Created with Sketch.</desc>
    <defs></defs>
    <g id="Symbols" stroke="none" stroke-width="1" fill="none" fill-rule="evenodd">
        <g id="Logo/icon">
            <path d="M0,448 C0,694.647712 200.352288,895 448,895 C694.647712,895 895,694.647712 895,448 C895,200.352288 694.647712,0 448,0 C200.352288,0 0,200.352288 0,448 Z" id="Ball" fill="#FFFFFF"></path>
            <path d="M663.811061,55.5865697 C801.58899,131.856493 895,278.902884 895,448 C895,694.647712 694.647712,895 448,895 C285.472757,895 143.316066,808.706516 64.7940976,679.666382 C65.5244781,680.449617 66.2597803,681.227509 67,682 C642.482357,959.779885 960.841817,330.710408 665,57 C664.611601,56.5269238 664.215264,56.0557726 663.811061,55.5865697 Z" id="Shadow" fill="#CFE0D8"></path>
            <path d="M61.1423699,221.740007 C22.2716964,288.120706 0,365.43161 0,448 C0,452.103522 0.0554566432,456.194229 0.165665088,460.271412 C0.417753923,457.850549 0.695869932,455.426598 1,453 L92,359 L58,229 C59.0350808,226.562137 60.082239,224.142029 61.1424032,221.739951 Z M228.677582,57.1628159 C291.013858,22.1426904 362.605268,1.60448007 438.909874,0.0901258878 L351,88 L232,56 C230.88595,56.3834579 229.778496,56.7710688 228.677582,57.1628159 Z M662.181851,54.689119 C738.067097,96.2844592 800.619401,159.300077 841.706189,235.65619 L700,198 L662.181851,54.689119 Z M894.792709,434.22 C894.930572,438.796286 895,443.389948 895,448 C895,527.631484 874.116189,602.437344 837.533037,667.233111 L801,529 L894.792709,434.22 Z M664.74125,838.929432 C600.522448,874.647139 526.612693,895 448,895 C446.009698,895 444.02245,894.987059 442.038337,894.961257 L533,803 L664.74125,838.929432 Z M222.589251,834.390261 C156.876627,796.140943 101.821713,741.683031 62.9045927,676.532413 C63.9242595,677.696511 64.9560606,678.852419 66,680 L187,709 L220,832 C220.852028,832.800847 221.715166,833.597667 222.589259,834.390269 Z" id="Edge" fill="#135C29"></path>
            <path d="M841.706189,235.65619 C800.913808,159.847207 738.962432,97.188221 663.811061,55.5865697 C664.215264,56.0557726 664.611601,56.5269238 665,57 C713.47483,101.848513 745.459526,156.23774 762.524935,214.615018 L841.706189,235.65619 Z M894.792713,434.220147 C894.930573,438.796384 895,443.389998 895,448 C895,527.631484 874.116189,602.437344 837.533037,667.233111 L801,529 L894.792709,434.22 Z M664.74125,838.929432 C600.522448,874.647139 526.612693,895 448,895 C446.009697,895 444.022448,894.987059 442.038334,894.961257 L533,803 L664.74125,838.929432 Z M222.589251,834.390261 C157.93309,796.755878 103.594706,743.429884 64.7940976,679.666382 C65.5244781,680.449617 66.2597803,681.227509 67,682 C110.381217,702.939703 152.301333,718.726234 192.607391,729.900274 L220,832 C220.852031,832.800849 221.715171,833.597671 222.589267,834.390275 Z" id="Edge-Shadow" fill="#2A5135"></path>
            <path d="M255,395 L397,254 L586,306 L517,376 L612,402 L638,497 L497,638 L308,586 L377,517 L282,491 L255,395 Z M448,447 L517,376 L421,350 L352,421 L447,447 L377,516 L473,542 L542,472 L448,447 L448,447 Z" id="S" fill="#135C29"></path>
        </g>
    </g>
</svg>