<?xml version="1.0" encoding="UTF-8"?>
<svg width="64px" height="64px" viewBox="0 0 64 64" version="1.1" xmlns="http://www.w3.org/2000/svg" xmlns:xlink="http://www.w3.org/1999/xlink">
    <!-- Generator: Sketch 43.2 (39069) - http://www.bohemiancoding.com/sketch -->
    <title>spotters</title>
    <desc>Created with Sketch.</desc>
    <defs></defs>
    <g id="Page-1" stroke="none" stroke-width="1" fill="none" fill-rule="evenodd">
        <g id="spotters" fill-rule="nonzero" fill="#FFFFFF">
            <g id="spotters-white">
                <path d="M62.7728632,39.7133429 C60.6733859,47.9944007 55.3302184,54.9826217 48.1739603,59.2478361 L43.8274837,56.1338271 L33.2857027,63.6930592 C32.8169771,63.7135058 32.3456231,63.7238356 31.8718538,63.7238356 C23.8554235,63.7238356 16.5281667,60.763119 10.9259593,55.8753439 L12.8244028,50.1166644 L1.69610507,42.1418034 C0.596563596,38.9162864 1.44328993e-15,35.458091 1.44328993e-15,31.8606027 C1.44328993e-15,27.3450453 0.940214921,23.0487454 2.6355045,19.1565804 L9.03713777,19.1565804 L13.4065718,5.89085197 C18.616934,2.18164136 24.9903624,5.44009282e-15 31.8718538,5.44009282e-15 C33.2012209,6.62014275e-05 34.5115798,0.081465095 35.7982213,0.239488816 L37.7116797,6.04145568 L50.5513085,6.04145568 C57.0472909,10.7447059 61.6986657,17.8367737 63.2150247,26.0276383 L59.2162305,28.8934048 L62.7728632,39.7133429 Z M32.5685204,15.5275747 L16.6153506,26.9624108 L22.7141194,45.4658004 L42.4252834,45.4658004 L48.5228712,26.9624108 L32.5685204,15.5275747 Z" id="Shape"></path>
            </g>
        </g>
    </g>
</svg>