<?xml version="1.0" encoding="UTF-8"?>
<svg width="895px" height="895px" viewBox="0 0 895 895" version="1.1" xmlns="http://www.w3.org/2000/svg" xmlns:xlink="http://www.w3.org/1999/xlink">
    <!-- Generator: Sketch 43.2 (39069) - http://www.bohemiancoding.com/sketch -->
    <title>Logo/iOS icon w-o shadow</title>
    <desc>Created with Sketch.</desc>
    <defs></defs>
    <g id="Symbols" stroke="none" stroke-width="1" fill="none" fill-rule="evenodd">
        <g id="Logo/iOS-icon-w-o-shadow">
            <g id="Group-2">
                <path d="M0,447 C0,693.871569 200.128431,894 447,894 C693.871569,894 894,693.871569 894,447 C894,200.128431 693.871569,0 447,0 C200.128431,0 0,200.128431 0,447 Z" id="ball" fill="#006938"></path>
                <path d="M231.741071,55.9375 C158.580922,96.3336605 98.2678915,156.442701 57.9352679,228.74442 L91.8973214,358.59933 L0.998883929,452.49442 C2.04553978,535.788719 25.7259596,613.351037 65.9263393,679.241071 L186.791295,708.208705 L219.754464,831.071429 C284.570084,870.085679 360.43745,892.834396 441.506696,894.001116 L532.405134,802.103795 L664.257812,838.063616 C736.295277,798.607227 796.243831,739.368594 837.064732,668.253348 L800.106027,528.409598 L895,432.516741 C892.764765,361.669992 873.950675,294.810063 842.059152,235.736607 L699.21875,197.779018 L661.261161,53.9397321 C598.263396,19.6515316 525.474098,0 448.498884,0 C444.878995,0 441.672137,0.0339186458 438.510045,0 L350.608259,87.9017857 L231.741071,55.9375 Z M254.715402,394.559152 L396.55692,253.716518 L585.345982,305.658482 L516.422991,375.580357 L611.316964,401.551339 L637.287946,496.445312 L496.445312,637.287946 L307.65625,585.345982 L376.579241,516.422991 L281.685268,490.452009 L254.715402,394.559152 Z M447.5,446.501116 L516.422991,375.580357 L420.530134,349.609375 L351.607143,420.530134 L446.501116,446.501116 L376.579241,515.424107 L472.472098,541.395089 L541.395089,471.473214 L447.5,446.501116 Z" id="small-s" fill="#FFFFFF"></path>
                <path d="M67,680 C145.555506,808.551474 286.890419,894 449,894 C694.95561,894 895,694.001032 895,448 C895,278.793457 801.690908,132.086607 664,56 C959.7636,329.384173 641.788168,957.703867 67,680 Z" id="shadow" fill="#CFE0D8" style="mix-blend-mode: multiply;"></path>
            </g>
        </g>
    </g>
</svg>