<?xml version="1.0" encoding="UTF-8"?>
<svg width="32px" height="32px" viewBox="0 0 32 32" version="1.1" xmlns="http://www.w3.org/2000/svg" xmlns:xlink="http://www.w3.org/1999/xlink">
    <!-- Generator: Sketch 43.2 (39069) - http://www.bohemiancoding.com/sketch -->
    <title>spotters</title>
    <desc>Created with Sketch.</desc>
    <defs></defs>
    <g id="Page-1" stroke="none" stroke-width="1" fill="none" fill-rule="evenodd">
        <g id="spotters">
            <g>
                <path d="M31.9749555,15.948274 C31.9749555,24.7473973 24.8397472,31.8798904 16.0368359,31.8798904 C7.23874838,31.8798904 0.100909022,24.7473973 0.100909022,15.948274 C0.100909022,7.15090411 7.23830986,0.0179726027 16.0368359,0.0179726027 C24.8393087,0.0184109589 31.9749555,7.15090411 31.9749555,15.948274 L31.9749555,15.948274 Z" id="Path" fill="#FFFFFF" fill-rule="evenodd"></path>
                <polygon id="Shape" fill="#000000" fill-rule="nonzero" points="16.0368359 9.72361644 10.1132668 14.0252055 12.3777998 20.985863 19.6967491 20.985863 21.9608435 14.0252055"></polygon>
                <path d="M31.9749555,15.948274 C31.9749555,24.7473973 24.8397472,31.8798904 16.0368359,31.8798904 C7.23874838,31.8798904 0.100909022,24.7473973 0.100909022,15.948274 C0.100909022,7.15090411 7.23830986,0.0179726027 16.0368359,0.0179726027 C24.8393087,0.0184109589 31.9749555,7.15090411 31.9749555,15.948274 L31.9749555,15.948274 Z M2.23213095,19.1013699 L8.07238066,23.341589 L6.945815,26.803726 C9.1603563,28.6579726 11.8927933,29.7898082 14.7677503,30.0493151 L20.608,25.8064658 L23.5557518,27.9460822 C26.0009562,26.4131507 27.9247568,24.1665753 29.0574617,21.5123288 L26.8302033,14.6476712 L29.777078,12.5080548 C29.0723715,9.70827397 27.529209,7.18553425 25.3536962,5.28657534 L18.1351686,5.28657534 L17.0081644,1.82443836 C14.1279452,1.62673973 11.2529882,2.31452055 8.77226342,3.79616438 L6.54105824,10.6590685 L2.89824743,10.6590685 C1.82123487,13.3387397 1.58487096,16.2849315 2.23213095,19.1013699 Z" id="Shape" fill="#000000" fill-rule="nonzero"></path>
            </g>
        </g>
    </g>
</svg>