<?xml version="1.0" encoding="UTF-8"?>
<svg width="895px" height="895px" viewBox="0 0 895 895" version="1.1" xmlns="http://www.w3.org/2000/svg" xmlns:xlink="http://www.w3.org/1999/xlink">
    <!-- Generator: Sketch 43.2 (39069) - http://www.bohemiancoding.com/sketch -->
    <title>Logo/icon</title>
    <desc>Created with Sketch.</desc>
    <defs></defs>
    <g id="Symbols" stroke="none" stroke-width="1" fill="none" fill-rule="evenodd">
        <g id="Logo/icon">
            <g id="Group">
                <path d="M0,447 C0,693.871569 200.128431,894 447,894 C693.871569,894 894,693.871569 894,447 C894,200.128431 693.871569,0 447,0 C200.128431,0 0,200.128431 0,447 Z" id="Ball" fill="#135C29"></path>
                <path d="M230.741899,55.9375 C157.581841,96.3336605 97.2688862,156.442701 56.9363128,228.74442 L90.898324,358.59933 L-2.84217094e-14,452.49442 C1.04665454,535.788719 24.7270448,613.351037 64.9273743,679.241071 L185.792179,708.208705 L218.755307,831.071429 C283.570846,870.085679 359.438118,892.834396 440.507263,894.001116 L531.405587,802.103795 L663.258101,838.063616 C735.295475,798.607227 795.243954,739.368594 836.064804,668.253348 L799.106145,528.409598 L894,432.516741 C891.764768,361.669992 872.950701,294.810063 841.059218,235.736607 L698.218994,197.779018 L660.261453,53.9397321 C597.263767,19.6515316 524.474559,-2.84217094e-14 447.499441,-2.84217094e-14 C443.879557,-2.84217094e-14 440.672703,0.0339186458 437.510615,-2.84217094e-14 L349.608939,87.9017857 L230.741899,55.9375 Z M255,395 L397.370757,254 L586.86423,306 L517.684073,376 L612.932115,402 L639,497 L497.631854,638 L308.138381,586 L377.318538,517 L282.070496,491 L255,395 Z M448,447 L517,376 L421,350 L352,421 L447,447 L377,516 L473,542 L542,472 L448,447 L448,447 Z" id="Small-S" fill="#FFFFFF"></path>
                <path d="M762,214 L842,235 C873.696261,294.223367 892.630901,361.207032 895,433 L800,528 L837,668 C820.717511,696.752135 801.093073,723.708258 779,748 C745.941591,784.05215 707.321108,814.577054 664,838 L533,802 L442,894 C368.843771,892.824391 300.408671,874.419195 240,843 C233.239867,838.981053 226.422678,835.121272 220,831 L192,728 C598.206112,840.824806 840.478094,484.872443 762,214 L762,214 Z" id="Path" fill="#CFE0D8"></path>
                <path d="M192.328647,727.861321 C152.110307,716.686234 110.283288,700.911941 67,680 C114.663436,757.998415 185.438718,820.128749 269.94322,856.932241 C252.665202,849.341946 235.989321,840.671595 220,831 L192.328647,727.861321 Z M761.897675,214.714068 C744.916213,155.919616 712.818688,101.124744 664,56 C739.183893,97.5458609 801.135217,160.147355 841.888535,235.97038 L761.897675,214.714068 Z M894.762662,433.240016 C894.920482,438.140038 895,443.060432 895,448 C895,527.903821 873.89489,602.954327 836.966544,667.874312 L800,529 L894.762656,433.239842 Z M785.899356,739.998219 C704.066826,834.292949 583.386507,894 449,894 C446.679463,894 444.363182,893.982491 442.051281,893.947597 L532,802 L664,838 C710.302512,812.811416 751.532906,779.478017 785.899356,739.998219 Z" id="Combined-Shape" fill="#2A5135"></path>
            </g>
        </g>
    </g>
</svg>