<?xml version="1.0" encoding="UTF-8"?>
<svg width="64px" height="64px" viewBox="0 0 64 64" version="1.1" xmlns="http://www.w3.org/2000/svg" xmlns:xlink="http://www.w3.org/1999/xlink">
    <!-- Generator: Sketch 43.2 (39069) - http://www.bohemiancoding.com/sketch -->
    <title>spotters</title>
    <desc>Created with Sketch.</desc>
    <defs></defs>
    <g id="Page-1" stroke="none" stroke-width="1" fill="none" fill-rule="evenodd">
        <g id="spotters" fill-rule="nonzero" fill="#FFFFFF">
            <g id="spotters-white">
                <path d="M4.4642619,38.2027397 C3.16974191,32.569863 3.64246974,26.6774795 5.79649486,21.318137 L13.0821165,21.318137 L17.5445268,7.59232877 C22.5059764,4.6290411 28.2558904,3.25347945 34.0163289,3.64887671 L36.2703373,10.5731507 L50.7073925,10.5731507 C55.058418,14.3710685 58.1447431,19.4165479 59.5541561,25.0161096 L53.6604065,29.2953425 L58.1149235,43.0246575 C55.8495135,48.3331507 52.0019124,52.8263014 47.1115036,55.8921644 L41.216,51.6129315 L29.5355006,60.0986301 C23.7855866,59.5796164 18.3207126,57.3159452 13.89163,53.6074521 L16.1447613,46.6831781 L4.4642619,38.2027397 Z M32.0736719,19.4472329 L20.2265337,28.050411 L24.7555995,41.971726 L39.3934983,41.971726 L43.9216871,28.050411 L32.0736719,19.4472329 Z" id="Shape"></path>
            </g>
        </g>
    </g>
</svg>