<svg width="77" height="39" viewBox="0 0 77 39" xmlns="http://www.w3.org/2000/svg"><title>strategy-orange</title><path d="M72.343 23.158c-1.598-.806-5.203-2.421-9.768-4.466C52.93 14.37 39.72 8.451 34.967 5.47c-.968-.606-1.837-1.165-2.622-1.669-4.576-2.938-6.873-4.409-9.242-2.602-1.604 1.224-3.263 2.488-3.356 4.19-.049.904.34 1.756 1.156 2.534 1.324 1.261 3.314 3.056 4.699 4.294-2.498 1.273-4.777 1.865-6.023 1.865-6.205 0-6.958-2.015-7.687-3.963-.497-1.331-1.249-3.342-3.967-3.342-3.721 0-7.239 8.938-7.239 18.392 0 7.828 2.556 9.618 6.901 10.014l.294 2.279a1 1 0 0 0 .992.872h3.56a1 1 0 0 0 .992-.872l.28-2.171h5.381l.28 2.171a1 1 0 0 0 .992.872h3.56a1 1 0 0 0 .992-.872l.28-2.171h15.413l.28 2.171a1 1 0 0 0 .992.872h3.56a1 1 0 0 0 .992-.872l.28-2.171h5.381l.28 2.171a1 1 0 0 0 .992.872h3.56a1 1 0 0 0 .992-.872l.28-2.171h5.381l.28 2.171a1 1 0 0 0 .992.872h3.56a1 1 0 0 0 .992-.872l.285-2.205c3.608-.169 6.126-1.808 6.763-4.486.684-2.866-1.042-6.068-4.102-7.613zM22.971 5.75a1.538 1.538 0 0 1-.205-.23c.241-.475 1.571-1.489 2.155-1.935.672-.515 2.358.529 5.803 2.74l1.41.903a21.5 21.5 0 0 1-3.833 3.376c-1.312-1.167-3.809-3.404-5.33-4.854zM8.006 9.777c.48.004.582.071 1.076 1.393 1.117 2.992 2.849 5.913 10.496 5.913 3.554 0 10.549-2.866 15.147-8.268 3.301 1.875 8.702 4.462 14.397 7.084.793 2.292.498 4.552-.897 6.731-3.1 4.838-10.944 8.404-18.146 9.66h-8.051c-.495-5.425-3.663-10.022-9.253-13.359-3.055-1.824-6.077-2.832-7.773-3.307 1.01-3.425 2.34-5.533 3.004-5.847zm2.863 22.514c-5.662 0-7.184 0-7.184-7.122 0-2.872.331-5.428.814-7.6 3.743 1.071 14.492 4.985 15.518 14.722h-9.148zm62.659-2.214c-.335 1.407-1.958 2.214-4.452 2.214H37.708c5.152-1.918 9.817-4.86 12.201-8.582 1.382-2.157 1.883-4.451 1.524-6.751 3.412 1.556 6.843 3.094 9.915 4.471 4.35 1.949 8.106 3.632 9.643 4.407 1.805.911 2.896 2.734 2.537 4.241z" fill="#E96438"/></svg>