<?xml version="1.0" encoding="UTF-8"?>
<svg width="96px" height="96px" viewBox="0 0 96 96" version="1.1" xmlns="http://www.w3.org/2000/svg" xmlns:xlink="http://www.w3.org/1999/xlink">
    <!-- Generator: Sketch 43.2 (39069) - http://www.bohemiancoding.com/sketch -->
    <title>supporters</title>
    <desc>Created with Sketch.</desc>
    <defs></defs>
    <g id="Page-1" stroke="none" stroke-width="1" fill="none" fill-rule="evenodd">
        <g id="supporters" fill="#009D4F">
            <path d="M96,60 C96,61.2661129 95.5301386,62.2682533 95,63 C92.3145505,63.8914791 89.1861762,64.3331631 85,64 C82.9593722,64.3331631 82.0149395,64.3204143 81,64 C77.7160499,66.2916759 73.7507749,67.3317862 69,67 C68.7715595,67.3317862 68.4624351,67.3292838 68,67 C67.9847266,67.3135571 68,72 68,72 C67.8242894,83.6388573 58.3064212,93 47,93 C34.9822875,93 25.503876,83.5998162 26,72 L26,69 C11.2640708,68.505146 0,56.8119046 0,43 L0,32 C0,29.6358055 0.688742248,25.481026 1,25 C4.16664791,13.3160012 14.8870972,5 27,5 C37.2678931,5 46.3237706,10.4950878 51,19 C55.6547627,13.7425587 62.2650665,10.6374114 69,11 C82.8783215,10.6374114 93.6867926,21.2351249 94,34 L94,43 C93.940289,44.237453 96,60.0903437 96,60 Z M55,42 C54.7627913,43.5949473 54.5090239,45.5214965 54,48 C59.5304069,49.4305765 64.0331718,53.5819718 66,59 C66.7998855,59.9012338 67.1266945,60.8347976 67,62 C68.2826256,61.9531266 68.9833454,62 70,62 C80.3302515,62 89,53.5639263 89,43 L89,35 C82.1615451,34.5245166 78.708641,30.8137817 75,26 C73.89529,27.204228 70.6403069,28.6899482 67,30 C61.6570474,32.1697121 55,33 55,33 L55,42 Z M91,59 C90.8754655,58.5358527 90.7316766,57.3411466 91,56 C89.8298049,57.414892 88.9613904,58.7603877 88,60 C89.1649839,59.9127003 90.1602539,59.7485526 91,59 Z M76,17 C73.7513797,16.4832542 71.3738529,16 69,16 C62.3689995,16 56.4122106,19.2911404 53,25 C53.2325513,25.3524917 53.6738587,27.7436178 54,28 C65.4311623,27.7436178 75.888422,17.5824327 76,17 Z M78,22 C78.3016141,22.9752085 79.0122471,24.2631558 80,25 C85.9666017,31.8046982 88,31 88,31 C87.0047476,26.0385749 84.3955815,21.8293862 81,19 C79.8888387,20.1639757 79.0209287,21.2892782 78,22 C77.9997523,22.3796048 78.0007717,22.413504 78,22 Z M48,51 C48,51 39.1936377,50.6423341 34,57 L60,57 C58.0984033,54.5294205 52.9975774,51.0716613 48,51 Z M46,20 C36.9069577,26.2808204 24.351644,28.7852673 11,29 C8.59923919,28.7852673 6.72074473,28.7208012 5,29 C5.06633608,29.5896699 5,41 5,41 C5,52.7603701 14.2113774,62.3341774 26,63 C26.0085644,61.6069961 26.4300304,60.1786872 27,59 C27.2824079,58.0123734 27.548092,57.4075788 28,57 C25.0928794,56.7760365 22.6363086,56.1620617 20,55 C19.0904191,54.5827095 17,53 17,53 C16.2620089,52.5166167 16.1399461,50.9441911 17,50 C17.9226213,48.781761 19.4710221,48.6553877 21,49 C20.7014469,49.5808879 22.1116786,50.3969334 23,51 C25.395618,51.8146299 28.5158139,52.2418172 32,52 C35.9522704,47.9607392 40.9760621,45.9286934 46,46 C46.4386736,45.9286934 48.2292018,46.0506004 48,46 C48.8082712,44.5063692 49,42.8524503 49,41 L49,32 C49,32 49,22.890843 46,20 Z M27,10 C18.2531978,10 10.1756638,15.6198192 7,24 C7.07714176,23.9208652 7.15993415,23.924882 7,24 C8.08314799,23.9696947 8.64307438,23.9881642 9,24 C21.85692,24.1754346 34.0259819,22.1372811 42,17 C42.5191667,16.6784792 42.6748782,16.5670995 43,16 C38.8869921,12.3008217 33.3854884,10 27,10 Z M32,62 C31.4803337,62.670878 31,64.9023774 31,67 L31,72 C31,80.9879869 38.1453469,88 47,88 C55.8546531,88 63,80.9879869 63,72 L63,67 C63,64.9613386 62.7936858,62.9599681 62,62 C62.2764124,61.9967086 32,62 32,62 Z M64,52 C64.2348737,50.7098693 65.6432372,49.8073534 67,50 C67.1792508,50.279526 67.5289155,50.360554 68,50 C70.1841673,50.8046467 72.5894619,50.7775758 75,50 C76.1564188,49.6660349 77.5218481,50.5410375 78,52 C78.3086452,53.3030931 77.501039,54.7852645 76,55 C75.2503131,55.4474152 74.3386171,55.6209441 73,56 C72.9562506,55.8050492 72.5684896,55.849085 72,56 C71.8883467,55.9174477 71.163867,55.9862589 71,56 C69.6928327,56 68.4805598,55.8763624 67,56 C66.9536737,55.5957066 66.6109997,55.5214813 66,55 C66.1082875,55.4003305 65.9920639,55.3723723 66,55 C64.5395951,55.1358052 63.8364234,53.7346346 64,52 Z M67,38 C67.0162511,37.173874 68.2352106,36 70,36 C70.9206584,36 72.1082032,37.0800867 72,38 L72,44 L74,44 C75.7810405,44.0930233 77,45.2668972 77,47 C77,47.8563078 75.8783603,49 74,49 L69,49 C67.9540196,49 66.851874,47.8999937 67,46 L67,38 Z M60,44 C57.7912582,44 56,42.2095375 56,40 C56,37.7904625 57.7912582,36 60,36 C62.2087418,36 64,37.7904625 64,40 C64,42.2095375 62.2087418,44 60,44 Z M80,43 C77.7912582,43 76,41.2095375 76,39 C76,36.7904625 77.7912582,35 80,35 C82.2087418,35 84,36.7904625 84,39 C84,41.2095375 82.2087418,43 80,43 Z M17,42 C14.7912235,42 13,40.2095026 13,38 C13,35.7904974 14.7912235,34 17,34 C19.2087765,34 21,35.7904974 21,38 C21,40.2095026 19.2087765,42 17,42 Z M40,42 C37.7912235,42 36,40.2095026 36,38 C36,35.7904974 37.7912235,34 40,34 C42.2087765,34 44,35.7904974 44,38 C44,40.2095026 42.2087765,42 40,42 Z M39,73 C36.5673747,73 35,71.4333691 35,70 C35,67.5666309 36.5673747,66 39,66 C40.4326253,66 42,67.5666309 42,70 C42,71.4333691 40.4326253,73 39,73 Z M57,73 C54.5673747,73 53,71.4333691 53,70 C53,67.5666309 54.5673747,66 57,66 C58.4326253,66 60,67.5666309 60,70 C60,71.4333691 58.4326253,73 57,73 Z M44,68 C44.0166902,67.1297409 45.2360578,66 47,66 C47.9224046,66 49.110347,67.0394797 49,68 L49,72 L50,72 C51.7806324,72.2775061 53,73.4072471 53,75 C53,75.8993061 51.8779848,77 50,77 L46,77 C44.9835988,77 43.8477105,75.8511211 44,75 L44,68 Z M25,37 C25.0529406,36.1318085 26.2233088,35 27,35 C28.8017068,35 29.9419126,36.0413821 30,37 L30,43 L33,43 C33.8296318,43.2688634 35,44.4006719 35,46 C35,46.8972917 33.9230721,48 33,48 L27,48 C25.9514789,48 24.7275203,46.9401365 25,46 L25,37 Z M54,80 C54.2712305,81.4155325 53.6289947,82.8989762 52,83 C51.0008924,83.7979437 49.598187,84 48,84 C45.6259766,84 43,83 43,83 C42.2524522,82.7197023 41.6608412,81.0482684 42,80 C42.624992,78.293428 44.1073624,77.6126655 45,78 C45.5833679,78.2958725 45.9124665,78.3948255 46,78 C47.519747,78.7753007 49.1420769,78.7796426 51,78 C52.1233183,77.604783 53.5090013,78.4684316 54,80 Z" id="Path"></path>
        </g>
    </g>
</svg>