<?xml version="1.0" encoding="UTF-8"?>
<svg width="96px" height="96px" viewBox="0 0 96 96" version="1.1" xmlns="http://www.w3.org/2000/svg" xmlns:xlink="http://www.w3.org/1999/xlink">
    <!-- Generator: Sketch 43.2 (39069) - http://www.bohemiancoding.com/sketch -->
    <title>supporters</title>
    <desc>Created with Sketch.</desc>
    <defs></defs>
    <g id="Page-1" stroke="none" stroke-width="1" fill="none" fill-rule="evenodd">
        <g id="supporters" fill="#00A860">
            <path d="M96,59.830506 C96,60.8820369 95.5301386,61.8844332 94.5803219,62.2942044 C92.3145505,63.5080735 89.1861762,63.9498704 85.1627907,63.9498704 C82.9593722,63.9498704 82.0149395,63.9371182 81.3567327,63.8659745 C77.7160499,65.9088833 73.7507749,66.9492592 69.496124,66.9492592 C68.7715595,66.9492592 68.4624351,66.9467561 68.0665716,66.9337205 C67.9847266,66.9310254 67.8242894,71.7080858 67.8242894,71.7080858 C67.8242894,83.2604945 58.3064212,92.6240277 46.6640827,92.6240277 C34.9822875,92.6240277 25.503876,83.2214434 25.503876,71.7080858 L25.503876,68.0989021 C11.2640708,67.1226633 0,55.4264358 0,41.2342952 L0,31.5162753 C0,29.2436523 0.688742248,25.0878119 0.790911652,24.8859489 C4.16664791,12.9196805 14.8870972,4.60155575 27.2325581,4.60155575 C37.2678931,4.60155575 46.3237706,10.0980468 51.0948549,18.6601709 C55.6547627,13.346347 62.2650665,10.2404068 69.496124,10.2404068 C82.8783215,10.2404068 93.6867926,20.8408265 93.8139535,34.0357619 L93.8139535,42.850927 C93.940289,43.8490286 96,59.7059675 96,59.830506 Z M54.5865633,41.1143196 C54.5865633,43.1693101 54.3331368,45.1226071 53.8247967,47.1707298 C59.3477741,49.08596 63.8444899,53.2949924 66.1613063,58.7089772 C66.6074868,59.7019898 66.9338568,60.648515 67.1715962,61.6810482 C68.0882351,61.7823706 68.7880135,61.8298948 69.496124,61.8298948 C80.1196762,61.8298948 88.7777778,53.2766964 88.7777778,42.7939774 L88.7777778,34.9254642 C81.9485097,33.9729474 78.5002441,30.2106934 75.1166992,25.3300781 C73.6933594,26.5510254 70.442749,28.057373 66.6013184,29.6671143 C61.4715576,31.5854492 54.5865633,32.3762207 54.5865633,32.3762207 L54.5865633,41.1143196 Z M90.8398893,58.2972301 C90.7081412,57.4406273 90.5560232,56.3643844 90.3957062,55.1562216 C89.6019106,56.4308174 88.6831931,57.6428981 87.6661142,58.7595945 C88.8985798,58.6809511 89.9515009,58.5330798 90.8398893,58.2972301 Z M76.8745341,16.6980001 C74.5859106,15.7322709 72.1660873,15.2397956 69.6175711,15.2397956 C63.0010368,15.2397956 56.9382761,18.5937353 53.465362,23.9772814 C53.7020504,24.7707451 54.1512086,27.2074969 54.1924842,27.4687712 C66.1176758,27.2074969 76.7609711,16.8524232 76.8745341,16.6980001 Z M78.3703326,21.8217407 C78.6772549,22.366531 79.4175885,23.6421243 79.9906819,24.397977 C86.6625977,31.1113281 88.780981,30.2817733 88.780981,30.2817733 C87.7441324,25.4005135 85.0259173,21.2316994 81.0631581,18.4294527 C80.3308169,19.5822635 79.4266329,20.6967722 78.3630812,21.7763315 C78.3627769,21.7766403 78.3638389,21.8102143 78.3703326,21.8217407 Z M47.5142119,50.9925106 C47.5142119,50.9925106 39.088501,50.6140747 33.9811794,57.2708238 L59.5490701,57.2708238 C57.6790771,54.684021 52.6630249,51.0635986 47.5142119,50.9925106 Z M46.0552631,19.8648031 C37.2613288,26.1649174 24.6285951,28.6770576 10.8372093,28.6770576 C8.77905597,28.6770576 6.88897812,28.6123935 5.36136211,28.5065001 C5.22436787,29.4839312 5.15762274,41.1143196 5.15762274,41.1143196 C5.15762274,52.725809 14.4258004,62.3290257 26.028205,62.9968937 C26.2957326,61.5996107 26.7197975,60.1669142 27.277234,58.7353452 C27.577431,57.9939457 27.8447533,57.3872933 28.1170045,56.8561626 C25.3744012,56.753811 22.9026824,56.1379501 20.7088574,55.1638176 C19.3349278,54.5537464 17.6099055,53.4040139 17.6099055,53.4040139 C16.4890767,52.4813067 16.3662613,50.9040509 17.2382187,49.8276294 C18.159929,48.7349781 19.7178777,48.6082165 20.7824193,49.427419 C20.9558896,49.5365598 22.3748173,50.3551121 22.9662564,50.6096546 C25.6790065,51.7771635 28.8184425,52.2056631 32.3449097,51.4713256 C36.3007545,47.9114342 41.3555246,45.8731462 46.6640827,45.8731462 C46.8518203,45.8731462 48.6533894,45.9954277 48.8589796,46.0069121 C49.2360295,44.4464527 49.4289406,42.7874532 49.4289406,41.1143196 L49.4289406,31.5162753 C49.4289406,31.5162753 49.4289406,22.7645264 46.0552631,19.8648031 Z M27.3540052,9.60094459 C18.0735804,9.60094459 9.95558674,15.2081424 6.76401632,23.4868196 C6.84154448,23.4905453 6.92475157,23.4945531 7.01421887,23.4988645 C7.8525897,23.5392652 8.41532071,23.5576932 9.03024681,23.5578019 C21.6953533,23.744543 33.925369,21.7109669 42.2678877,16.3789449 C42.4610954,16.2644248 42.6175868,16.1532953 42.9443372,15.9033173 C38.8107275,11.8965989 33.2816673,9.60094459 27.3540052,9.60094459 Z M31.3371164,62.0302615 C31.0241089,62.7033691 30.5400517,64.9671631 30.5400517,66.7890881 L30.5400517,71.4681347 C30.5400517,80.271196 37.7407889,87.3846877 46.6640827,87.3846877 C55.5873765,87.3846877 62.7881137,80.271196 62.7881137,71.4681347 L62.7881137,66.7890881 C62.7881137,65.0269775 62.5802002,62.9966431 62.0670146,62.0302615 C62.0589169,62.0194432 31.3371164,62.0302615 31.3371164,62.0302615 Z M64.3639299,52.020317 C64.5719615,50.5665324 66.0184316,49.7132304 67.4170308,50.1123592 C67.5960057,50.1596556 67.9551313,50.2362652 68.4636435,50.3145581 C70.6822272,50.6561416 73.1526026,50.6305468 75.5227102,50.0100172 C76.8160719,49.579618 78.2184461,50.406907 78.594678,51.7249548 C79.0265319,53.0183483 78.197074,54.4196973 76.8358345,54.807972 C75.8854495,55.0457411 74.9490854,55.2098076 73.926498,55.3351783 C73.5293157,55.3838735 73.1310629,55.4255079 72.6711006,55.4680672 C72.4325171,55.4901429 71.6884349,55.5552018 71.5,55.5681936 C70.1775984,55.5681936 68.9325246,55.451298 67.7629713,55.2534003 C67.364325,55.1859462 67.0123792,55.1157684 66.656853,55.0368948 C66.4960649,55.0012239 66.3766966,54.9747903 66.2902407,54.9556075 C64.8849278,54.7511232 64.1627302,53.426358 64.3639299,52.020317 Z M67.0051282,38.4464996 C67.0051282,37.1719726 68.176295,36.0027658 69.4512821,36.0027658 C70.7564522,36.0027658 71.8974359,37.0785582 71.8974359,38.4464996 L71.8974359,44.0636128 L74.1512821,44.0636128 C75.4262691,44.0636128 76.5974359,45.2328197 76.5974359,46.5073466 C76.5974359,47.8119353 75.5197733,48.9510804 74.1512821,48.9510804 L69.3307692,48.9510804 C67.9061288,48.9510804 66.847196,47.8554475 67.0051282,46.4447504 L67.0051282,38.4464996 Z M59.8102564,42.6949006 C57.7275262,42.6949006 56.0384615,41.0086625 56.0384615,38.9277442 C56.0384615,36.8468258 57.7275262,35.1605877 59.8102564,35.1605877 C61.8929866,35.1605877 63.5820513,36.8468258 63.5820513,38.9277442 C63.5820513,41.0086625 61.8929866,42.6949006 59.8102564,42.6949006 Z M79.6948718,42.5745895 C77.6121416,42.5745895 75.9230769,40.8883513 75.9230769,38.807433 C75.9230769,36.7265147 77.6121416,35.0402766 79.6948718,35.0402766 C81.777602,35.0402766 83.4666667,36.7265147 83.4666667,38.807433 C83.4666667,40.8883513 81.777602,42.5745895 79.6948718,42.5745895 Z M16.6666667,41.8527226 C14.3842643,41.8527226 12.5333333,40.004889 12.5333333,37.7246327 C12.5333333,35.4443763 14.3842643,33.5965428 16.6666667,33.5965428 C18.9490691,33.5965428 20.8,35.4443763 20.8,37.7246327 C20.8,40.004889 18.9490691,41.8527226 16.6666667,41.8527226 Z M40.2871795,41.8527226 C38.0047771,41.8527226 36.1538462,40.004889 36.1538462,37.7246327 C36.1538462,35.4443763 38.0047771,33.5965428 40.2871795,33.5965428 C42.5695819,33.5965428 44.4205128,35.4443763 44.4205128,37.7246327 C44.4205128,40.004889 42.5695819,41.8527226 40.2871795,41.8527226 Z M38.2384615,72.1711322 C36.2888461,72.1711322 34.7076923,70.5926244 34.7076923,68.6445981 C34.7076923,66.6965718 36.2888461,65.118064 38.2384615,65.118064 C40.188077,65.118064 41.7692308,66.6965718 41.7692308,68.6445981 C41.7692308,70.5926244 40.188077,72.1711322 38.2384615,72.1711322 Z M56.5564103,72.5320657 C54.6067948,72.5320657 53.025641,70.9535578 53.025641,69.0055315 C53.025641,67.0575052 54.6067948,65.4789974 56.5564103,65.4789974 C58.5060257,65.4789974 60.0871795,67.0575052 60.0871795,69.0055315 C60.0871795,70.9535578 58.5060257,72.5320657 56.5564103,72.5320657 Z M44.2282051,67.9227312 C44.2282051,66.6482043 45.3993719,65.4789974 46.674359,65.4789974 C47.9795291,65.4789974 49.1205128,66.5547899 49.1205128,67.9227312 L49.1205128,71.9757995 L50.4102564,71.9757995 C51.6852435,71.9757995 52.8564103,73.1450064 52.8564103,74.4195333 C52.8564103,75.724122 51.7787476,76.8632671 50.4102564,76.8632671 L46.5538462,76.8632671 C45.1568924,76.8632671 44.0659052,75.6742537 44.2282051,74.3492126 L44.2282051,67.9227312 Z M25.1871795,37.1230769 C25.1871795,35.84855 26.3583462,34.6793431 27.6333333,34.6793431 C28.9385034,34.6793431 30.0794872,35.7551356 30.0794872,37.1230769 L30.0794872,43.2214347 L32.6948718,43.2214347 C33.9698589,43.2214347 35.1410256,44.3906416 35.1410256,45.6651685 C35.1410256,46.9697573 34.063363,48.1089023 32.6948718,48.1089023 L27.5128205,48.1089023 C26.0863308,48.1089023 24.8615372,47.0140177 25.1871795,45.648627 L25.1871795,37.1230769 Z M54.3844792,79.7990105 C54.7784809,81.1757091 54.111673,82.5676107 52.7747257,82.9479777 C51.3830183,83.4111038 49.9270768,83.6006914 48.3615385,83.6006914 C47.1231261,83.6006914 45.9923277,83.457085 44.9543367,83.2132606 C44.600558,83.1301578 44.2923978,83.0440365 43.9789916,82.9460909 C43.9060611,82.9232987 43.8189597,82.8954061 43.7203688,82.863892 C43.8064736,82.8909358 43.7615193,82.8788245 43.9025641,82.8788245 L43.7405441,82.8788245 L43.5868127,82.8276665 C42.2998587,82.3993997 41.6856124,80.8311084 42.2451664,79.5905273 C42.686652,78.2462666 44.2257386,77.6075134 45.482539,78.1826202 C45.7582167,78.2485603 46.0999069,78.341407 46.2542081,78.3744162 C47.7686826,78.6984034 49.4530836,78.7024774 51.2594091,78.1741534 C52.5483887,77.6001173 53.9870886,78.410471 54.3844792,79.7990105 Z" id="Path"></path>
        </g>
    </g>
</svg>