<svg width="96" height="96" viewBox="0 0 96 96" xmlns="http://www.w3.org/2000/svg"><title>supporters</title><path d="M94.218 46.019l.087.678C94.651 49.387 96 59.706 96 59.831c0 1.051-.47 2.053-1.42 2.463-2.265 1.214-5.394 1.656-9.417 1.656-2.204 0-3.148-.013-3.806-.084-3.641 2.043-7.606 3.083-11.86 3.083-.725 0-1.035-.002-1.43-.015-.082-.003-.243 4.774-.243 4.774 0 11.552-9.518 20.916-21.16 20.916-11.682 0-21.16-9.403-21.16-20.916v-3.61C11.264 67.124 0 55.427 0 41.235v-9.718c0-1.931.205-3.837.61-5.992.016-.23.079-.436.18-.638C4.168 12.92 14.888 4.602 27.234 4.602c10.035 0 19.09 5.496 23.862 14.058 4.56-5.314 11.17-8.42 18.401-8.42 13.382 0 24.19 10.6 24.318 23.796v8.815c.126.998.261 2.054.404 3.168zm-39.631-4.905c0 2.055-.254 4.009-.762 6.057 5.523 1.915 10.02 6.124 12.336 11.538.446.993.773 1.94 1.01 2.972.917.101 1.617.149 2.325.149 10.624 0 19.282-8.553 19.282-19.036v-7.869c-6.83-.952-10.278-4.714-13.661-9.595-1.424 1.221-4.674 2.727-8.516 4.337-5.13 1.918-12.014 2.71-12.014 2.71v8.737zM90.84 58.297c-.132-.856-.284-1.933-.444-3.14a24.973 24.973 0 0 1-2.73 3.603c1.233-.079 2.286-.227 3.174-.463zM56.936 27.052c8.088-1.42 15.396-4.587 19.626-9.92l-.09.102c.158-.207.289-.382.403-.536a18.486 18.486 0 0 0-7.257-1.458c-6.617 0-12.68 3.354-16.153 8.737.237.794.426 1.678.613 2.787.037.218.073.443.114.705a28.585 28.585 0 0 0 2.744-.417zm21.434-5.23c.307.545 1.048 1.82 1.62 2.576 1.824 2.702 4.387 4.77 7.716 5.671l1.075.213c-1.037-4.881-3.755-9.05-7.718-11.853-.732 1.153-1.636 2.268-2.7 3.347 0 0 0 .034.007.046zm-26.884 29.97l-.164-.063a1.033 1.033 0 0 0-.161-.046 2.438 2.438 0 0 1-.572-.196 2.872 2.872 0 0 0-.265-.122 5.737 5.737 0 0 1-.725-.086 2.44 2.44 0 0 0-.385-.047h-.41l-.122-.12-.193-.029c-.308-.076-.503-.09-.975-.09h-.728c-5.112 0-9.787 2.351-12.805 6.278H59.55c-2.079-2.616-4.886-4.555-8.063-5.478zm-2.531-24.545a33.557 33.557 0 0 0-.164-.66c.04.158-.138-.532-.198-.783a6.134 6.134 0 0 0-.224-.88c-.063-.196-.316-.921-.35-1.025-.43-1.358-1.07-2.653-1.964-4.034-8.794 6.3-21.426 8.812-35.218 8.812-2.058 0-3.948-.065-5.476-.17a21.478 21.478 0 0 0-.203 3.01v9.597c0 11.612 9.268 21.215 20.87 21.883.268-1.397.692-2.83 1.25-4.262.3-.741.567-1.348.839-1.879-2.743-.102-5.214-.718-7.408-1.692-1.374-.61-3.494-1.926-2.906-1.635l-.193-.125a2.531 2.531 0 0 1-.372-3.576 2.572 2.572 0 0 1 3.544-.4c.174.109.448.285.603.378.468.279.99.55 1.581.804 2.713 1.167 5.852 1.596 9.379.861 3.956-3.56 9.01-5.598 14.32-5.598.187 0 .372.013.594.037l.256.03c.324.04.459.053.606.053.355 0 .532.002.738.014.377-1.56.57-3.22.57-4.893v-9.598c0-.467-.024-.933-.072-1.47-.02-.225-.044-.46-.076-.749l-.088-.78c-.05-.399-.126-.797-.238-1.27zM27.354 9.601c-9.28 0-17.398 5.607-20.59 13.886l.25.012c.839.04 1.401.059 2.016.059 12.665.187 24.895-1.847 33.238-7.18.193-.114.35-.225.676-.475a22.307 22.307 0 0 0-15.59-6.302zm3.983 52.43a9.578 9.578 0 0 0-.44 1.884l-.023.12c-.133.526-.213.995-.213 1.314v.125l-.03.12a2.94 2.94 0 0 0-.078.538c-.01.172-.013.318-.013.657v4.68c0 8.802 7.2 15.916 16.124 15.916 8.923 0 16.124-7.114 16.124-15.917V66.79c0-.856-.018-1.255-.111-1.896l-.01-.143c0-.32-.08-.789-.213-1.318-.007-.027-.148-.606-.194-.78a7.005 7.005 0 0 0-.193-.622h-30.73zm33.027-10.01c.208-1.454 1.654-2.308 3.053-1.909.179.048.538.124 1.047.203 2.218.341 4.689.316 7.059-.305 1.293-.43 2.695.397 3.072 1.715.432 1.293-.398 2.695-1.76 3.083a23.62 23.62 0 0 1-2.909.527c-.397.049-.795.09-1.255.133a97.59 97.59 0 0 1-1.171.1 22.344 22.344 0 0 1-4.843-.531l-.367-.081c-1.405-.205-2.127-1.53-1.926-2.936zm2.641-13.575c0-1.274 1.171-2.443 2.446-2.443 1.305 0 2.446 1.076 2.446 2.443v5.618h2.254c1.275 0 2.446 1.169 2.446 2.443 0 1.305-1.077 2.444-2.446 2.444h-4.82c-1.425 0-2.484-1.096-2.326-2.506v-7.999zm-7.195 4.249a3.77 3.77 0 0 1-3.772-3.767 3.77 3.77 0 0 1 3.772-3.767 3.77 3.77 0 0 1 3.772 3.767 3.77 3.77 0 0 1-3.772 3.767zm19.885-.12a3.77 3.77 0 0 1-3.772-3.768 3.77 3.77 0 0 1 3.772-3.767 3.77 3.77 0 0 1 3.772 3.767 3.77 3.77 0 0 1-3.772 3.768zm-63.028-.722a4.13 4.13 0 0 1-4.134-4.128 4.13 4.13 0 0 1 4.134-4.128 4.13 4.13 0 0 1 4.133 4.128 4.13 4.13 0 0 1-4.133 4.128zm23.62 0a4.13 4.13 0 0 1-4.133-4.128 4.13 4.13 0 0 1 4.133-4.128 4.13 4.13 0 0 1 4.134 4.128 4.13 4.13 0 0 1-4.134 4.128zM38.238 72.17a3.529 3.529 0 0 1-3.53-3.526 3.529 3.529 0 0 1 3.53-3.527 3.529 3.529 0 0 1 3.531 3.527 3.529 3.529 0 0 1-3.53 3.526zm18.318.361a3.529 3.529 0 0 1-3.53-3.526 3.529 3.529 0 0 1 3.53-3.527 3.529 3.529 0 0 1 3.531 3.527 3.529 3.529 0 0 1-3.53 3.526zm-12.328-4.61c0-1.274 1.171-2.443 2.446-2.443 1.306 0 2.447 1.076 2.447 2.444v4.053h1.29c1.274 0 2.445 1.169 2.445 2.444 0 1.304-1.077 2.443-2.446 2.443h-3.856c-1.397 0-2.488-1.189-2.326-2.514v-6.426zm-19.04-30.799c0-1.274 1.17-2.444 2.445-2.444 1.306 0 2.446 1.076 2.446 2.444v6.098h2.616c1.275 0 2.446 1.17 2.446 2.444 0 1.305-1.078 2.444-2.446 2.444h-5.182c-1.427 0-2.651-1.095-2.326-2.46v-8.526zM54.383 79.8c.394 1.377-.272 2.769-1.61 3.149-1.391.463-2.847.653-4.412.653-1.239 0-2.37-.144-3.408-.388a13.604 13.604 0 0 1-.975-.267l-.259-.082c.086.027.042.015.183.015h-.162l-.154-.051c-1.287-.429-1.901-1.997-1.342-3.237.442-1.345 1.98-1.983 3.238-1.408.275.066.617.158.771.191 1.515.324 3.2.328 5.005-.2 1.29-.574 2.728.236 3.125 1.625z" fill="#19A974" fill-rule="evenodd"/></svg>