<?xml version="1.0" encoding="UTF-8"?>
<svg width="32px" height="32px" viewBox="0 0 32 32" version="1.1" xmlns="http://www.w3.org/2000/svg" xmlns:xlink="http://www.w3.org/1999/xlink" style="background: #00A860;">
    <!-- Generator: Sketch 43.2 (39069) - http://www.bohemiancoding.com/sketch -->
    <title>twitter-white</title>
    <desc>Created with Sketch.</desc>
    <defs></defs>
    <g id="Page-1" stroke="none" stroke-width="1" fill="none" fill-rule="evenodd">
        <g id="twitter-white" fill-rule="nonzero" fill="#FFFFFF">
            <g id="twitter">
                <path d="M32,6 C30.88,6.68879989 29.52,7.00516296 28,7 C29.6,6.37243683 30.64,5.02789382 31,4 C30,4.31607693 28.48,4.79062152 27,5 C22.16,0.20335712 14.48,4.55334922 16,11 C10.32,10.8015197 5.44,8.27061521 2,4 C0.48,7.24243525 1.36,11.1178828 4,13 C3.28,12.9369704 2.24,12.6206073 1,12 C1.36,15.3096933 3.6,17.9196886 7,19 C5.6,18.789687 4.56,18.8687778 4,19 C4.4,21.3205915 6.88,23.2187699 10,23 C6.4,25.5914929 3.6,26.224219 0,26 C13.6,34.6869309 30.24,23.3769514 29,9 C30,8.58697827 31.12,7.47970755 32,6 Z" id="Shape"></path>
            </g>
        </g>
    </g>
</svg>