<svg width="32" height="32" viewBox="0 0 32 32" xmlns="http://www.w3.org/2000/svg"><title>twitter-white</title><path d="M31.929 6.162c-1.175.52-2.437.872-3.763 1.03a6.561 6.561 0 0 0 2.88-3.618 13.132 13.132 0 0 1-4.159 1.587 6.547 6.547 0 0 0-4.781-2.065c-3.618 0-6.551 2.928-6.551 6.54 0 .512.058 1.01.17 1.49A18.607 18.607 0 0 1 2.222 4.293a6.5 6.5 0 0 0-.887 3.288 6.534 6.534 0 0 0 2.914 5.443 6.533 6.533 0 0 1-2.967-.818v.082A6.546 6.546 0 0 0 6.536 18.7a6.57 6.57 0 0 1-2.958.112 6.556 6.556 0 0 0 6.119 4.542 13.158 13.158 0 0 1-8.135 2.8c-.53 0-1.05-.032-1.563-.092A18.564 18.564 0 0 0 10.041 29c12.05 0 18.638-9.965 18.638-18.606 0-.284-.006-.566-.019-.846a13.301 13.301 0 0 0 3.269-3.386" fill="#FFF" fill-rule="evenodd"/></svg>