<?xml version="1.0" encoding="UTF-8"?>
<svg width="32px" height="32px" viewBox="0 0 32 32" version="1.1" xmlns="http://www.w3.org/2000/svg" xmlns:xlink="http://www.w3.org/1999/xlink" style="background: #00A860;">
    <!-- Generator: Sketch 43.2 (39069) - http://www.bohemiancoding.com/sketch -->
    <title>twitter-white</title>
    <desc>Created with Sketch.</desc>
    <defs></defs>
    <g id="Page-1" stroke="none" stroke-width="1" fill="none" fill-rule="evenodd">
        <g id="twitter-white" fill-rule="nonzero" fill="#FFFFFF">
            <g id="twitter">
                <path d="M32,6.17120667 C30.88,6.73120667 29.52,7.05120667 28.24,7.21120667 C29.6,6.41120667 30.64,5.05120667 31.2,3.53120667 C30,4.33120667 28.48,4.81120667 27.04,5.13120667 C22.16,0.171206665 14.48,4.57120667 15.76,11.1312067 C10.32,10.8912067 5.44,8.33120667 2.24,4.33120667 C0.48,7.29120667 1.36,11.2112067 4.32,13.0512067 C3.28,13.0512067 2.24,12.7312067 1.36,12.3312067 C1.36,15.4512067 3.6,18.0912067 6.56,18.7312067 C5.6,18.9712067 4.56,19.0512067 3.6,18.8912067 C4.4,21.5312067 6.88,23.4512067 9.76,23.4512067 C6.4,25.8512067 3.6,26.4912067 0,26.1712067 C13.6,35.0512067 30.24,23.6112067 28.72,9.53120667 C30,8.65120667 31.12,7.53120667 32,6.17120667 Z" id="Shape"></path>
            </g>
        </g>
    </g>
</svg>