<?xml version="1.0" encoding="UTF-8"?>
<svg width="32px" height="26px" viewBox="0 0 32 26" version="1.1" xmlns="http://www.w3.org/2000/svg" xmlns:xlink="http://www.w3.org/1999/xlink">
    <!-- Generator: Sketch 43.2 (39069) - http://www.bohemiancoding.com/sketch -->
    <title>twitter-green</title>
    <desc>Created with Sketch.</desc>
    <defs></defs>
    <g id="Page-1" stroke="none" stroke-width="1" fill="none" fill-rule="evenodd">
        <g id="twitter-green" fill="#00A860">
            <path d="M31.9287591,3.16232287 C30.7539854,3.68243946 29.4915036,4.03396413 28.1664234,4.19206278 C29.5189489,3.38268161 30.5575474,2.10110314 31.0466569,0.574098655 C29.7810219,1.32343498 28.3790949,1.8676861 26.8870073,2.16103139 C25.6920292,0.89006278 23.9896058,0.095838565 22.1055766,0.095838565 C18.4878248,0.095838565 15.5548029,3.02381166 15.5548029,6.63524664 C15.5548029,7.14778475 15.6128467,7.6469148 15.7244964,8.12552466 C10.280292,7.85281614 5.45354745,5.24931839 2.22271533,1.29288789 C1.65886131,2.25873543 1.33582482,3.38209865 1.33582482,4.58054709 C1.33582482,6.84930942 2.49237956,8.85095964 4.2500438,10.0236413 C3.17617518,9.989713 2.16618978,9.69555157 1.28291971,9.20574888 C1.28245255,9.23303139 1.28245255,9.26043049 1.28245255,9.28794619 C1.28245255,12.4564484 3.54043796,15.0995874 6.53710949,15.7002691 C5.98738686,15.8497399 5.40870073,15.9296054 4.81121168,15.9296054 C4.38913869,15.9296054 3.97874453,15.8886816 3.57886131,15.8123139 C4.41237956,18.4104484 6.83153285,20.3011031 9.6979854,20.3539193 C7.45611679,22.1078117 4.63159124,23.1532915 1.56262774,23.1532915 C1.03392701,23.1532915 0.512467153,23.1223946 0,23.062 C2.89891971,24.9174439 6.34218978,26 10.0414599,26 C22.0902774,26 28.6790073,16.0352377 28.6790073,7.39356054 C28.6790073,7.11000897 28.6727007,6.82797309 28.6600876,6.54756951 C29.939854,5.62556054 31.0505109,4.47374888 31.9287591,3.16232287" id="Fill-1"></path>
        </g>
    </g>
</svg>