<svg width="100" height="94" viewBox="0 0 100 94" xmlns="http://www.w3.org/2000/svg"><title>whistle-orange</title><g fill="none"><path d="M93.9 35.1H63c-.3 0-.5.2-.5.5v3.9c0 .5-.3.9-.8 1L53.8 42c-.6.1-1.2-.4-1.2-1v-5.4c0-.3-.2-.5-.5-.5H31.7c-15.3 0-28.4 11.8-29.2 27-.8 16.3 12.2 29.8 28.4 29.8 15.7 0 28.4-12.7 28.4-28.4 0-1.8-.2-3.6-.5-5.4l34.8-6.6c1.6-.3 2.7-1.6 2.9-3.2l1-9.3c.2-2-1.5-3.9-3.6-3.9zm-63 42.7c-7.9 0-14.3-6.4-14.3-14.3S23 49.2 30.9 49.2s14.3 6.4 14.3 14.3-6.4 14.3-14.3 14.3z" stroke="#E96438" stroke-width="4"/><path d="M57.5 25.2c1 0 1.8-.8 1.8-1.8V1.9c0-1-.8-1.8-1.8-1.8s-1.8.8-1.8 1.8v21.5c.1 1 .9 1.8 1.8 1.8zM43.9 24c.3.7.9 1.2 1.7 1.2.2 0 .4 0 .6-.1.9-.3 1.4-1.3 1.1-2.3L39.9 2.6c-.3-.9-1.4-1.4-2.3-1.1-.9.3-1.4 1.3-1.1 2.3L43.9 24zm25 1.1c.2.1.4.1.6.1.7 0 1.4-.4 1.7-1.2l7.4-20.2c.3-.9-.1-1.9-1.1-2.3-.9-.3-1.9.1-2.3 1.1l-7.4 20.2c-.3.9.2 1.9 1.1 2.3z" fill="#E96438"/></g></svg>