<?xml version="1.0" encoding="UTF-8"?>
<svg width="895px" height="895px" viewBox="0 0 895 895" version="1.1" xmlns="http://www.w3.org/2000/svg" xmlns:xlink="http://www.w3.org/1999/xlink">
    <!-- Generator: Sketch 43.2 (39069) - http://www.bohemiancoding.com/sketch -->
    <title>white w-o green</title>
    <desc>Created with Sketch.</desc>
    <defs></defs>
    <g id="Symbols" stroke="none" stroke-width="1" fill="none" fill-rule="evenodd">
        <g id="white-w-o-green" fill="#FFFFFF">
            <path d="M231,56 C157.758108,96.4412958 97.3776881,156.617498 57,229 L91,359 L1.42108547e-14,453 C1.04782529,536.387366 24.7547037,614.036346 65,680 L186,709 L219,832 C283.888039,871.057842 359.840174,893.831976 441,895 L532,803 L664,839 C736.117953,799.499526 796.133489,740.194704 837,669 L800,529 L895,433 C892.762267,362.074093 873.927156,295.13946 842,236 L699,198 L661,54 C597.931847,19.6734886 525.06122,0 448,0 C444.376066,0 441.165625,0.0339565438 438,0 L350,88 L231,56 Z M254,395 L396,254 L585,306 L516,376 L611,402 L637,497 L496,638 L307,586 L376,517 L281,491 L254,395 Z M447,447 L516,376 L420,350 L351,421 L446,447 L376,516 L472,542 L541,472 L447,447 Z" id="small-s"></path>
        </g>
    </g>
</svg>